<svg width="85" height="122" viewBox="0 0 85 122" fill="none" xmlns="http://www.w3.org/2000/svg">
<path fill-rule="evenodd" clip-rule="evenodd" d="M50.5964 6.81185C48.1645 4.54023 45.6092 2.3416 42.8822 0.427818C42.3337 0.0171088 41.9371 0.298003 41.5015 0.606554C41.4216 0.663127 41.3404 0.720629 41.2568 0.774969C34.4099 5.8594 28.3408 12.0886 23.6165 19.1829C22.7009 20.5003 21.8855 21.8658 21.1077 23.2686C19.2784 26.279 17.7137 29.4354 16.4942 32.7396C15.5232 35.0273 14.74 37.3772 14.098 39.777C13.3542 42.159 12.8052 44.573 12.4243 47.0369C11.7877 50.4515 11.3961 53.9301 11.3371 57.4034C11.3428 58.0997 11.3398 58.802 11.3367 59.507C11.3272 61.6606 11.3177 63.8394 11.5588 65.9504C11.6843 66.801 11.7379 67.6542 11.7916 68.5088C11.8137 68.8599 11.8358 69.2112 11.8628 69.5626C12.0971 71.0829 12.351 72.5944 12.6908 74.0952C13.4478 78.0269 14.8579 81.9022 16.2263 85.6628L16.2421 85.706C16.5879 86.7077 17.0498 87.6567 17.5127 88.6078L17.5456 88.6755C18.2089 89.9952 18.8478 91.3262 19.4865 92.6571L19.487 92.6581C19.9812 93.6877 20.4754 94.7174 20.9807 95.7414C21.5565 96.8416 22.1198 97.9489 22.6652 99.0634C22.8958 99.5369 23.1748 99.9642 23.5056 100.372C23.5694 100.452 23.6333 100.531 23.6972 100.611L23.8188 100.762C24.7734 101.953 25.7285 103.144 26.6456 104.363C27.1766 105.068 27.753 105.744 28.3294 106.42C29.0671 107.284 29.8048 108.149 30.4473 109.076C30.7303 109.835 30.7451 110.583 30.7608 111.377L30.7623 111.451L30.7638 111.523C30.7633 112.274 30.7535 113.032 30.7437 113.793C30.7172 115.841 30.6904 117.91 30.8442 119.919C31.0811 119.795 31.3186 119.668 31.5572 119.54C32.6026 118.979 33.6685 118.407 34.7925 118.061C39.1378 116.852 43.7352 116.692 48.1502 117.632C50.1018 117.96 51.7236 118.821 53.4263 119.724C53.5489 119.789 53.6718 119.854 53.7954 119.919C53.9795 118.04 53.9559 116.122 53.9323 114.216C53.9234 113.494 53.9145 112.773 53.917 112.058C53.9173 111.998 53.9174 111.937 53.9174 111.877C53.9174 111.814 53.9173 111.752 53.9172 111.689C53.9154 110.812 53.9136 109.886 54.2299 109.074C54.7962 108.225 55.4619 107.439 56.1238 106.657C56.3313 106.412 56.5387 106.167 56.7423 105.921C58.521 103.846 60.0639 101.63 61.6191 99.3965C61.7666 99.1847 61.9142 98.9727 62.0621 98.7607C62.3714 98.2742 62.6504 97.7687 62.9295 97.2631C63.1845 96.801 63.4396 96.3389 63.718 95.8909C64.2705 94.7474 64.8125 93.5989 65.3543 92.4506L65.355 92.4491C65.9475 91.1936 66.5399 89.9383 67.1459 88.6898C67.2398 88.4886 67.3355 88.2893 67.431 88.0904L67.4317 88.0891C67.7465 87.4332 68.0588 86.7828 68.2975 86.0906C69.4401 82.9449 70.5488 79.7635 71.3856 76.5217C71.9078 74.2091 72.4138 71.8663 72.7071 69.5199C72.9717 67.5224 73.1702 65.468 73.2847 63.4563C73.3884 59.3866 73.4295 55.1692 72.8323 51.1386C72.5426 48.6498 72.151 46.1682 71.6181 43.7203C71.3202 42.3521 70.9275 41.0185 70.5339 39.6816C70.3841 39.1728 70.2341 38.6635 70.0892 38.1516C67.7127 30.1547 63.8074 22.7488 58.8398 16.0496C56.3221 12.7704 53.6076 9.65315 50.5964 6.81185ZM52.8763 42.289C50.6303 38.3296 46.0312 35.9405 41.4874 36.2681C40.4628 36.3429 39.4722 36.5636 38.494 36.8663C36.9222 37.3701 35.574 38.2317 34.3026 39.2625C34.2171 39.3336 34.1296 39.4047 34.0415 39.4763C33.6396 39.8033 33.2235 40.1418 32.9096 40.539C31.4433 42.5275 30.4187 44.7867 30.1433 47.2541C29.8053 49.9637 30.6726 52.8299 32.1156 55.1175C33.3173 57.1008 35.261 58.5695 37.3407 59.5468C39.5204 60.558 41.9434 60.7912 44.3092 60.4566C46.7035 60.0969 48.9906 58.849 50.8127 57.2895C52.7529 55.3668 54.0153 52.7444 54.4606 50.0669C54.8486 47.3876 54.1816 44.6371 52.8763 42.289Z" fill="white"/>
<path d="M72.7084 69.5205C73.9315 70.2166 75.0402 71.1619 76.0648 72.1179C75.8144 73.4496 75.5623 74.7847 75.2816 76.111C74.7362 78.801 73.6758 81.4928 72.6869 84.0564C71.986 85.9915 70.7396 87.8109 69.5844 89.5147C68.3399 91.3679 66.836 92.8829 65.2767 94.4798C64.7886 94.9925 64.2861 95.4625 63.7192 95.8916C64.8762 93.4971 65.9866 91.0813 67.1472 88.6904C67.5513 87.8252 67.9876 86.9938 68.2987 86.0912C69.4414 82.9455 70.5501 79.7642 71.3869 76.5223C71.9091 74.2097 72.4151 71.8669 72.7084 69.5205Z" fill="#04035A"/>
<path d="M11.863 69.5632C12.0973 71.0836 12.3512 72.595 12.691 74.0958C13.4509 78.0426 14.8689 81.9325 16.2423 85.7067C16.5963 86.7321 17.072 87.7023 17.5458 88.6761C18.7225 91.0172 19.8222 93.3939 20.9809 95.742C20.6555 95.5444 20.3407 95.3361 20.0707 95.0655C18.4167 93.3832 16.6678 91.7667 15.316 89.8226C14.2735 88.3521 13.2274 86.8389 12.4281 85.2224C11.3927 82.7532 10.4003 80.243 9.66894 77.667C9.18077 75.8761 8.91791 74.037 8.47266 72.2372C9.48118 71.2082 10.6328 70.3127 11.863 69.5632Z" fill="#04035A"/>
<path d="M76.0635 72.1177C77.0345 73.0452 78.0001 73.9602 78.8245 75.0231C81.7964 78.7367 83.5309 83.3031 83.9601 88.0207C84.0799 89.258 84.0441 90.5167 84.0727 91.7629C84.0674 93.6553 84.0674 95.5975 83.7491 97.4561C83.4111 99.6743 83.0124 101.852 82.3668 104.006C82.1809 104.611 81.9645 105.204 81.8161 105.82C81.0507 108.933 79.8866 111.805 78.6635 114.757C77.6586 117.092 76.6572 119.466 75.3805 121.669C74.3451 120.308 73.3294 118.873 72.1564 117.625C71.3267 116.788 70.5095 115.944 69.6011 115.189C66.225 112.275 62.1408 110.233 57.7223 109.485C56.5635 109.313 55.3923 109.225 54.23 109.074C54.9739 107.96 55.8894 106.952 56.7424 105.921C58.6897 103.65 60.3545 101.209 62.0622 98.7611C62.6541 97.83 63.1351 96.8295 63.718 95.8913C64.2849 95.4622 64.7873 94.9923 65.2755 94.4795C66.8348 92.8826 68.3386 91.3676 69.5832 89.5144C70.7384 87.8107 71.9847 85.9913 72.6857 84.0561C73.6745 81.4925 74.7349 78.8008 75.2803 76.1108C75.5611 74.7845 75.8132 73.4493 76.0635 72.1177Z" fill="white"/>
<path d="M8.47456 72.2368C8.91981 74.0367 9.18267 75.8757 9.67084 77.6666C10.4022 80.2427 11.3946 82.7528 12.43 85.2221C13.2293 86.8385 14.2754 88.3518 15.3179 89.8223C16.6697 91.7663 18.4186 93.3828 20.0726 95.0651C20.3426 95.3357 20.6573 95.544 20.9828 95.7416C21.5586 96.8418 22.1219 97.9492 22.6672 99.0636C22.8979 99.5372 23.1769 99.9644 23.5077 100.372C24.5663 101.693 25.6302 103.01 26.6477 104.363C27.8583 105.971 29.3049 107.426 30.4494 109.076C30.0059 109.136 29.5606 109.192 29.1154 109.234C24.4876 109.507 19.9206 111.435 16.2602 114.226C13.5512 116.254 11.2319 118.928 9.26493 121.661C6.43963 116.336 4.16865 110.696 2.5289 104.899C1.50249 101.298 0.755037 97.6465 0.574432 93.8991C0.411709 92.5194 0.434956 91.2109 0.583374 89.8312C0.708546 88.6544 0.678147 87.4972 0.915973 86.3347C1.34156 84.1966 1.85476 82.1137 2.75957 80.1216C4.08103 77.1664 5.99437 74.3464 8.47456 72.2368Z" fill="white"/>
</svg>
