<svg width="60" height="59" viewBox="0 0 82 59" fill="none" xmlns="http://www.w3.org/2000/svg">
<path fill-rule="evenodd" clip-rule="evenodd" d="M75.9169 43.9839C74.3429 42.376 72.7354 40.7976 71.1281 39.2194C69.1871 37.3136 67.2463 35.408 65.3648 33.4507L59.4164 39.3569C61.5414 41.3602 63.61 43.4216 65.6784 45.4826C66.9356 46.7353 68.1927 47.988 69.4622 49.2274C72.2094 51.9702 73.5714 55.076 73.7227 58.9539C74.7247 58.956 75.7267 58.955 76.7287 58.9541H76.7325C78.488 58.9524 80.2436 58.9508 81.9991 58.9654C82.0515 53.428 79.7932 47.9655 75.9169 43.9839Z" fill="#1c2781"/>
<path fill-rule="evenodd" clip-rule="evenodd" d="M50.4744 30.4406C51.5125 31.426 52.5469 32.408 53.4856 33.4334L59.4164 39.3569L65.3648 33.4507C66.1485 32.662 66.948 31.8875 67.7477 31.1129C69.1156 29.7878 70.4836 28.4626 71.7729 27.0662C75.0206 23.4303 76.4582 18.4461 75.6492 13.6577C74.6481 7.15803 69.4098 1.70705 62.9028 0.370231C57.5889 -0.787959 51.8035 0.808154 47.9563 4.63998C43.3758 8.92125 41.7635 15.7436 43.8472 21.6268C44.9299 25.1773 47.7151 27.8212 50.4744 30.4406ZM58.8111 8.27589C62.5652 7.98778 66.2494 10.5289 67.2098 14.1475C67.9199 16.873 67.2738 19.7541 65.3066 21.8111C63.4033 23.7818 61.4361 25.7582 59.4164 27.6136C58.8811 27.0852 58.3444 26.558 57.8077 26.0308L57.8042 26.0273C56.37 24.6186 54.9359 23.2098 53.5263 21.7766C51.9898 20.1747 51.204 18.1868 51.3379 15.9626C51.3554 12.004 54.8708 8.55247 58.8111 8.27589Z" fill="#1c2781"/>
<path fill-rule="evenodd" clip-rule="evenodd" d="M33.2334 39.0516C35.4553 41.2076 37.9551 43.8468 39.9539 46.1991V46.1991C37.3219 48.6918 35.863 52.1787 35.9358 55.8029L36 59C35.7439 57.2583 35.1386 54.6386 34.3516 53.0177C33.425 50.882 31.9284 49.4087 30.3421 47.847C30.0454 47.5549 29.7449 47.259 29.4451 46.9559C28.6322 46.1477 27.8161 45.3421 26.9999 44.5364L26.9986 44.5351L26.9964 44.533L26.9951 44.5317C25.1362 42.6968 23.2768 40.8614 21.4539 38.9926L27.3207 33C29.1764 35.1149 31.2044 37.0828 33.2334 39.0516ZM64.5 45.0953L64.4991 45.0944C64.2408 44.837 63.9824 44.5796 63.724 44.3223C63.9827 44.5798 64.2415 44.8377 64.5 45.0953Z" fill="#3C4BAD"/>
<path fill-rule="evenodd" clip-rule="evenodd" d="M33.5046 4.17324C38.6904 8.72533 40.3841 16.4063 37.6486 22.6985C36.3688 25.8596 33.5901 28.4943 30.955 30.9928C30.1028 31.8008 29.2657 32.5946 28.4991 33.3873L22.6323 39.3799L16.3289 33.347C15.4311 32.3277 14.4005 31.3362 13.3574 30.3326C11.3575 28.4085 9.3111 26.4396 8.06414 24.1448C5.81169 20.0652 5.39263 15.1616 7.03395 10.7939C8.84405 5.72902 13.3722 1.67247 18.6687 0.468188C23.872 -0.822532 29.5119 0.6641 33.5046 4.17324ZM65.6784 45.4826L65.6775 45.4817C65.4192 45.2243 65.1609 44.9669 64.9024 44.7096C65.1611 44.9671 65.4199 45.225 65.6784 45.4826ZM26.8636 9.53203C30.932 11.9867 31.8225 17.7949 28.7727 21.3905C27.6835 22.5947 26.5176 23.732 25.3517 24.8692C24.4367 25.7618 23.5218 26.6542 22.6439 27.579C21.2156 26.457 19.9322 25.1505 18.6523 23.8475C18.0128 23.1965 17.3743 22.5464 16.7189 21.9206C13.832 19.0741 13.5177 14.3377 16.2067 11.2549C18.8084 8.12607 23.3947 7.26751 26.8636 9.53203Z" fill="#3C4BAD"/>
<path d="M0.0496154 59C2.7153 58.9366 5.38681 58.9539 8.0525 58.9885C8.08604 58.7857 8.11888 58.5822 8.15177 58.3784C8.44418 56.5662 8.74151 54.7236 9.58905 53.0765C10.573 51.0076 12.358 49.2966 14.0867 47.6396C14.6691 47.0814 15.245 46.5294 15.7818 45.9718C16.6215 45.1784 17.4332 44.3512 18.2453 43.5236C19.6568 42.0851 21.0695 40.6455 22.6323 39.3799L16.3289 33.347L16.2998 33.7273C14.3303 35.8204 12.2638 37.8409 10.1998 39.859C9.02527 41.0075 7.85097 42.1557 6.69637 43.3155C2.51741 47.1934 -0.421827 53.284 0.0496154 59Z" fill="#3C4BAD"/>
<path fill-rule="evenodd" clip-rule="evenodd" d="M65.6784 45.4826L65.6775 45.4817C65.4192 45.2243 65.1609 44.9669 64.9024 44.7096C65.1611 44.9671 65.4199 45.225 65.6784 45.4826Z" fill="#1c2781"/>
<path fill-rule="evenodd" clip-rule="evenodd" d="M65.6784 45.4826L65.6775 45.4817C65.4192 45.2243 65.1609 44.9669 64.9024 44.7096C65.1611 44.9671 65.4199 45.225 65.6784 45.4826ZM45.0753 58.8848L43 51.5L40.8556 46.1043V46.1043C37.7663 49.5372 36.2879 54.1248 36.7914 58.7155L36.8185 58.9623C37.8152 58.9476 38.8903 58.9594 39.8857 58.9623C41.6165 58.9674 43.3459 58.9726 45.0753 58.8848Z" fill="#1c2781"/>
<path fill-rule="evenodd" clip-rule="evenodd" d="M47.1706 39.7689C45.0491 41.8648 42.9276 43.9608 40.8556 46.1043L43 51.5L45.0753 58.8848C45.2964 55.462 46.3383 52.3447 48.7944 49.8555C49.5783 49.0743 50.3607 48.2918 51.1431 47.5093C53.8812 44.7706 56.6189 42.0324 59.4164 39.3569L53.4856 33.4334C51.4136 35.5769 49.2921 37.6729 47.1706 39.7689Z" fill="#1c2781"/>
</svg>
