<svg width="132" height="20" viewBox="0 0 132 20" fill="none" xmlns="http://www.w3.org/2000/svg">
<path d="M4.22684 15.7857V0.380961H0V19.6429H13.5542V15.7857H4.22684Z" fill="white"/>
<path d="M26.31 0.35715V12.3333C26.31 15.381 24.0904 16.2143 22.2013 16.2143C20.3358 16.2143 18.0925 15.381 18.0925 12.3571V0.35715H14.3615V12.2619C14.3615 16.5 16.7701 20 22.2013 20C27.7269 20 30.0646 16.5 30.0646 12.2619V0.35715H26.31Z" fill="white"/>
<path d="M45.3476 0.380961V13.381L35.973 0.380961H32.0767V19.6429H35.973L36.0911 6.54763L45.3476 19.6429H49.2675V0.380961H45.3476Z" fill="white"/>
<path d="M64.1745 19.6429H68.2125L61.6006 0.380961H57.1613L50.148 19.6429H54.1623L55.65 15.6667H62.6869L64.1745 19.6429ZM56.9724 12.1191L59.1684 6.26191L61.3645 12.1191H56.9724Z" fill="white"/>
<path d="M82.5569 0.380953V19.6428H96.2056V15.8095H86.6893V11.5238L94.6235 11.5476V7.71428L86.6893 7.66666V4.23809H96.2056V0.380953H82.5569Z" fill="white"/>
<path d="M106.688 8.11904C104.421 7.61904 102.484 7.16666 102.484 5.80952C102.484 4.42857 104.279 3.83333 105.507 3.83333C107.325 3.83333 109.214 4.71428 109.214 6.16666V6.54762H113.394V6.16666C113.394 2.54762 110.324 0 105.932 0C101.162 0 98.0686 2.42857 98.0686 6.16666C98.0686 9.7619 101.823 10.6667 104.822 11.3809C107.184 11.9524 109.214 12.4286 109.214 13.8571C109.214 15.5952 107.514 16.0952 105.838 16.0952C104.067 16.0952 102.295 15.5238 102.295 13.8571V13.4762H97.7617V13.8571C97.7617 17.3095 100.619 20 105.2 20C110.702 20 113.559 17.3333 113.559 13.5238C113.559 9.66666 109.757 8.80952 106.688 8.11904Z" fill="white"/>
<path d="M123.971 8.23809L131.15 0.380953H126.474L119.201 8.38095V0.380953H115.187V19.6428H119.201V13.4762L121.279 11.1905L127.277 19.6428H132L123.971 8.23809Z" fill="white"/>
<path fill-rule="evenodd" clip-rule="evenodd" d="M79.5811 11.7436C78.7929 16.0922 75.2254 19.2231 71.0624 19.6152C73.4694 18.2601 75.2797 15.8725 75.8138 12.9257C76.7634 7.68606 73.3181 2.6627 68.1186 1.70576C67.2344 1.54302 66.3563 1.50836 65.5033 1.58871C67.3762 0.534209 69.6105 0.104841 71.8859 0.52361C77.0854 1.48055 80.5307 6.50391 79.5811 11.7436Z" fill="white"/>
</svg>
