<svg width="37" height="37" viewBox="0 0 37 37" fill="none" xmlns="http://www.w3.org/2000/svg">
<path d="M21.599 2.81034C21.599 2.13011 21.0478 1.57867 20.3678 1.57867C20.0297 1.57867 19.7235 1.71503 19.501 1.93577L19.33 2.12608L9.83459 14.9636H19.2577L21.5516 3.15788L21.5935 2.92727C21.5971 2.88878 21.599 2.84978 21.599 2.81034Z" fill="#3ECF8E"/>
<path d="M6.41333 20.2598C6.41333 21.3481 7.29526 22.2304 8.38318 22.2304H8.39189H17.8458L19.2578 14.9636H9.8346L6.97928 18.8239L6.79542 19.0932C6.55523 19.4198 6.41333 19.8232 6.41333 20.2598Z" fill="#3ECF8E"/>
<path d="M30.5867 16.9342C30.5867 15.8459 29.7047 14.9636 28.6168 14.9636H28.5388H19.2577L17.8458 22.2304H27.1532L30.1529 18.1749L30.2726 18.0022C30.4713 17.6946 30.5867 17.3278 30.5867 16.9342Z" fill="#3ECF8E"/>
<path d="M15.5433 34.1897C15.5433 34.8699 16.0945 35.4214 16.7745 35.4214C17.1391 35.4214 17.4667 35.2628 17.6921 35.0108L17.7406 34.9562L27.1533 22.2304H17.8459L15.5879 33.8515L15.5819 33.8827C15.5567 33.9808 15.5433 34.0837 15.5433 34.1897Z" fill="#3ECF8E"/>
<path d="M15.5433 34.1897C15.5433 34.8699 16.0945 35.4214 16.7745 35.4214C17.1391 35.4214 17.4667 35.2628 17.6921 35.0108L17.7406 34.9562L27.1533 22.2304H17.8459L15.5879 33.8515L15.5819 33.8827C15.5567 33.9808 15.5433 34.0837 15.5433 34.1897Z" fill="url(#paint0_linear)"/>
<defs>
<linearGradient id="paint0_linear" x1="23.2854" y1="23.384" x2="16.4774" y2="35.4213" gradientUnits="userSpaceOnUse">
<stop stop-color="#23915F"/>
<stop offset="1" stop-color="#3ECF8E" stop-opacity="0"/>
</linearGradient>
</defs>
</svg>
