<svg viewBox="0 0 1440 365" preserveAspectRatio="none" fill="none" xmlns="http://www.w3.org/2000/svg">
    <path
        d="M0 42.5999L20 54.4481C40 66.1187 80 90.0812 120 92.3C160 94.5187 200 75.8812 240 66.2518C280 56.7999 320 56.7999 360 49.6999C400 42.5999 440 28.3999 480 30.7518C520 33.2812 560 51.9187 600 73.3518C640 94.5187 680 118.481 720 113.6C760 108.719 800 75.8812 840 61.5481C880 47.4812 920 51.9187 960 66.2518C1000 80.3187 1040 104.281 1080 101.752C1120 99.4 1160 71 1200 52.0518C1240 33.2812 1280 23.5187 1320 26.0481C1360 28.3999 1400 42.5999 1420 49.6999L1440 56.7999V142H1420C1400 142 1360 142 1320 142C1280 142 1240 142 1200 142C1160 142 1120 142 1080 142C1040 142 1000 142 960 142C920 142 880 142 840 142C800 142 760 142 720 142C680 142 640 142 600 142C560 142 520 142 480 142C440 142 400 142 360 142C320 142 280 142 240 142C200 142 160 142 120 142C80 142 40 142 20 142H0V42.5999Z"
        fill="#572BB9" />
    <rect x="-28" y="138" width="1573" height="202" fill="#572BB9" />
    <g clip-path="url(#clip0)">
        <path
            d="M0 189.773L17.1 177.298C34.3 164.588 69 139.989 103 124.175C137.1 108.361 171 102.504 206 99.1653C240 96.0611 274 96.0611 309 105.432C342.9 114.803 377 133.546 411 133.546C445.7 133.546 480 114.803 514 114.803C548.6 114.803 583 133.546 617 133.546C651.4 133.546 686 114.803 720 124.175C754.3 133.546 789 171.031 823 186.669C857.1 202.073 891 196.216 926 186.669C960 177.473 994 164.588 1029 164.764C1062.9 164.588 1097 177.473 1131 177.298C1165.7 177.473 1200 164.588 1234 164.764C1268.6 164.588 1303 177.473 1337 183.506C1371.4 189.773 1406 189.773 1423 189.773H1440V246H1422.9C1405.7 246 1371 246 1337 246C1302.9 246 1269 246 1234 246C1200 246 1166 246 1131 246C1097.1 246 1063 246 1029 246C994.3 246 960 246 926 246C891.4 246 857 246 823 246C788.6 246 754 246 720 246C685.7 246 651 246 617 246C582.9 246 549 246 514 246C480 246 446 246 411 246C377.1 246 343 246 309 246C274.3 246 240 246 206 246C171.4 246 137 246 103 246C68.6 246 34 246 17 246H0V189.773Z"
            fill="#110439" />
    </g>
    <rect y="232.503" width="1440" height="104.44" fill="#110439" />
    <path
        d="M0 324.346L40 321.047C80 317.5 160 311.278 240 291.178C320 271.451 400 237.848 480 218.121C560 198.021 640 191.798 720 204.866C800 217.934 880 251.538 960 267.904C1040 284.519 1124.5 261.619 1204.5 254.961C1284.5 248.551 1360 257.761 1400 251.351L1440 244.693V364.172H1400C1360 364.172 1280 364.172 1200 364.172C1120 364.172 1040 364.172 960 364.172C880 364.172 800 364.172 720 364.172C640 364.172 560 364.172 480 364.172C400 364.172 320 364.172 240 364.172C160 364.172 80 364.172 40 364.172H0V324.346Z"
        fill="#0011FC" />
    <defs>
        <clipPath id="clip0">
            <rect width="1440" height="197" fill="white" transform="translate(0 49)" />
        </clipPath>
    </defs>
</svg>