<svg width="18" height="18" viewBox="0 0 18 18" fill="none" xmlns="http://www.w3.org/2000/svg">
<path d="M17.9647 3.42769C17.2909 3.72439 16.577 3.92024 15.846 4.00894C16.6156 3.54638 17.1918 2.82097 17.4683 1.96669C16.755 2.38294 15.9645 2.68594 15.123 2.85469C14.5678 2.26101 13.8322 1.86725 13.0302 1.73456C12.2283 1.60187 11.405 1.73768 10.6882 2.12088C9.97138 2.50409 9.40114 3.11325 9.06604 3.85378C8.73094 4.59431 8.64972 5.42476 8.835 6.21619C5.7675 6.07144 3.05025 4.59769 1.23 2.37169C0.899095 2.93405 0.726498 3.57546 0.7305 4.22794C0.7305 5.51044 1.383 6.63769 2.3715 7.29994C1.78564 7.28129 1.21273 7.12289 0.7005 6.83794V6.88294C0.700168 7.73523 0.994701 8.56139 1.53413 9.22126C2.07356 9.88112 2.82466 10.334 3.66 10.5032C3.11872 10.6482 2.55181 10.67 2.001 10.5669C2.23809 11.3004 2.69825 11.9416 3.31726 12.4011C3.93627 12.8605 4.68326 13.1152 5.454 13.1297C4.14865 14.1541 2.53686 14.7102 0.8775 14.7084C0.585 14.7084 0.29325 14.6912 0 14.6582C1.69178 15.7414 3.65888 16.3164 5.66775 16.3149C12.4575 16.3149 16.1663 10.6929 16.1663 5.82619C16.1663 5.66869 16.1663 5.51119 16.155 5.35369C16.8795 4.83233 17.5044 4.18505 18 3.44269L17.9647 3.42769Z" fill="#156591"/>
</svg>
