<svg width="35" height="47" viewBox="0 0 35 47" fill="none" xmlns="http://www.w3.org/2000/svg">
<path fill-rule="evenodd" clip-rule="evenodd" d="M20.0836 4.24661C19.4289 3.63651 18.7409 3.04603 18.0067 2.53204C17.859 2.42173 17.7523 2.49717 17.635 2.58004C17.6135 2.59524 17.5916 2.61068 17.5691 2.62527C15.7257 3.99081 14.0917 5.66378 12.8198 7.56912C12.5733 7.92293 12.3538 8.28966 12.1443 8.66642C11.6518 9.47494 11.2306 10.3227 10.9022 11.2101C10.6408 11.8245 10.43 12.4556 10.2571 13.1001C10.0569 13.7398 9.90905 14.3882 9.80651 15.0499C9.63512 15.967 9.52969 16.9012 9.5138 17.8341C9.51534 18.0211 9.51452 18.2097 9.51368 18.399C9.51114 18.9774 9.50857 19.5626 9.5735 20.1295C9.60728 20.358 9.62171 20.5871 9.63617 20.8167C9.64211 20.9109 9.64805 21.0053 9.65534 21.0997C9.71841 21.508 9.78677 21.9139 9.87824 22.317C10.0821 23.3729 10.4617 24.4137 10.8301 25.4237L10.8344 25.4353C10.9275 25.7044 11.0518 25.9592 11.1765 26.2147L11.1853 26.2328C11.3639 26.5873 11.5359 26.9448 11.7079 27.3022L11.708 27.3025L11.708 27.3025C11.8411 27.579 11.9741 27.8555 12.1102 28.1305C12.2652 28.426 12.4168 28.7234 12.5637 29.0227C12.6258 29.1499 12.7009 29.2647 12.7899 29.3742C12.8071 29.3956 12.8243 29.4169 12.8415 29.4383L12.8742 29.4791L12.8743 29.4791C13.1313 29.7988 13.3884 30.1186 13.6353 30.4461C13.7783 30.6355 13.9335 30.817 14.0887 30.9984C14.2873 31.2307 14.4859 31.4629 14.6588 31.7117C14.735 31.9158 14.739 32.1165 14.7433 32.3297L14.7437 32.3498L14.7441 32.3691C14.7439 32.5708 14.7413 32.7744 14.7386 32.9788C14.7315 33.5288 14.7243 34.0844 14.7657 34.624C14.8295 34.5907 14.8934 34.5565 14.9577 34.5221C15.2391 34.3715 15.5261 34.2179 15.8287 34.1248C16.9986 33.8002 18.2364 33.7572 19.425 34.0096C19.9505 34.0979 20.3871 34.3289 20.8455 34.5715C20.8785 34.589 20.9116 34.6065 20.9449 34.624C20.9944 34.1192 20.9881 33.6041 20.9817 33.0924C20.9793 32.8984 20.977 32.7049 20.9776 32.5126C20.9777 32.4965 20.9777 32.4803 20.9777 32.464C20.9777 32.4473 20.9777 32.4304 20.9777 32.4135V32.4133C20.9772 32.178 20.9767 31.9294 21.0619 31.7112C21.2143 31.4834 21.3935 31.2722 21.5717 31.0622L21.5718 31.0621C21.6277 30.9963 21.6835 30.9306 21.7383 30.8645C22.2171 30.3072 22.6326 29.7121 23.0513 29.1122C23.091 29.0553 23.1307 28.9984 23.1705 28.9414C23.2538 28.8108 23.3289 28.675 23.4041 28.5392C23.4727 28.4151 23.5414 28.291 23.6163 28.1707C23.7651 27.8636 23.911 27.5551 24.0569 27.2467L24.0571 27.2463C24.2166 26.9091 24.3761 26.572 24.5392 26.2367C24.5645 26.1826 24.5903 26.1291 24.616 26.0757L24.6161 26.0755L24.6162 26.0753C24.701 25.8992 24.785 25.7245 24.8493 25.5386C25.1569 24.6938 25.4554 23.8393 25.6807 22.9687C25.8213 22.3476 25.9575 21.7184 26.0365 21.0882C26.1077 20.5517 26.1612 20 26.192 19.4597C26.2199 18.3667 26.231 17.234 26.0702 16.1515C25.9922 15.4831 25.8868 14.8166 25.7433 14.1592C25.6631 13.7917 25.5574 13.4335 25.4514 13.0745C25.4111 12.9378 25.3707 12.801 25.3317 12.6636C24.6918 10.5158 23.6404 8.52681 22.303 6.72761C21.6251 5.8469 20.8943 5.0097 20.0836 4.24661ZM20.6974 13.7747C20.0927 12.7114 18.8545 12.0697 17.6312 12.1577C17.3553 12.1778 17.0886 12.2371 16.8253 12.3184C16.4021 12.4537 16.0391 12.6851 15.6968 12.9619C15.6738 12.981 15.6502 13.0001 15.6265 13.0194C15.5183 13.1072 15.4063 13.1981 15.3218 13.3047C14.927 13.8388 14.6511 14.4456 14.577 15.1082C14.486 15.836 14.7195 16.6057 15.108 17.2201C15.4315 17.7528 15.9549 18.1472 16.5148 18.4097C17.1016 18.6813 17.754 18.7439 18.3909 18.654C19.0355 18.5575 19.6513 18.2223 20.1419 17.8035C20.6642 17.2871 21.0041 16.5828 21.124 15.8637C21.2284 15.1441 21.0489 14.4054 20.6974 13.7747Z" fill="#F0B674"/>
<path d="M26.0369 21.0884C26.3661 21.2753 26.6646 21.5292 26.9405 21.786C26.8731 22.1436 26.8052 22.5022 26.7296 22.8584C26.5828 23.5809 26.2973 24.3038 26.0311 24.9923C25.8424 25.512 25.5068 26.0007 25.1958 26.4582C24.8607 26.956 24.4558 27.3629 24.036 27.7917C23.9046 27.9294 23.7693 28.0557 23.6167 28.1709C23.9282 27.5278 24.2272 26.879 24.5396 26.2369C24.6484 26.0045 24.7659 25.7812 24.8496 25.5388C25.1573 24.6939 25.4558 23.8395 25.6811 22.9689C25.8217 22.3478 25.9579 21.7186 26.0369 21.0884Z" fill="#AE4F71"/>
<path d="M9.65547 21.0999C9.71853 21.5082 9.7869 21.9141 9.87837 22.3172C10.083 23.3772 10.4648 24.4219 10.8345 25.4355C10.9298 25.7109 11.0579 25.9715 11.1855 26.233C11.5022 26.8618 11.7983 27.5001 12.1103 28.1307C12.0227 28.0777 11.9379 28.0217 11.8652 27.949C11.4199 27.4972 10.9491 27.0631 10.5851 26.541C10.3044 26.146 10.0228 25.7396 9.8076 25.3055C9.52885 24.6423 9.26166 23.9681 9.06475 23.2763C8.93332 22.7953 8.86255 22.3014 8.74268 21.818C9.0142 21.5416 9.32424 21.3011 9.65547 21.0999Z" fill="#AE4F71"/>
<path d="M26.9403 21.7859C27.2017 22.035 27.4617 22.2808 27.6836 22.5662C28.4837 23.5636 28.9507 24.79 29.0663 26.057C29.0985 26.3893 29.0889 26.7273 29.0966 27.062C29.0952 27.5703 29.0952 28.0919 29.0095 28.5911C28.9185 29.1868 28.8111 29.7716 28.6373 30.3501C28.5872 30.5127 28.529 30.6719 28.489 30.8373C28.283 31.6736 27.9696 32.4448 27.6403 33.2375C27.3697 33.8648 27.1001 34.5022 26.7564 35.0941C26.4776 34.7283 26.2042 34.3429 25.8883 34.0078C25.665 33.7831 25.445 33.5564 25.2004 33.3537C24.2914 32.571 23.1919 32.0226 22.0022 31.8218C21.6903 31.7754 21.3749 31.752 21.062 31.7113C21.2623 31.412 21.5088 31.1414 21.7384 30.8646C22.2627 30.2545 22.7109 29.599 23.1707 28.9415C23.33 28.6915 23.4595 28.4228 23.6165 28.1708C23.7691 28.0556 23.9044 27.9293 24.0358 27.7916C24.4556 27.3628 24.8605 26.9559 25.1956 26.4581C25.5066 26.0006 25.8421 25.5119 26.0309 24.9922C26.2971 24.3037 26.5826 23.5808 26.7294 22.8583C26.805 22.5021 26.8729 22.1435 26.9403 21.7859Z" fill="#E1626F"/>
<path d="M8.74319 21.8179C8.86306 22.3013 8.93383 22.7952 9.06526 23.2762C9.26217 23.968 9.52936 24.6422 9.80811 25.3053C10.0233 25.7395 10.3049 26.1459 10.5856 26.5408C10.9496 27.0629 11.4204 27.4971 11.8657 27.9489C11.9384 28.0216 12.0232 28.0775 12.1108 28.1306C12.2658 28.4261 12.4175 28.7235 12.5643 29.0228C12.6264 29.15 12.7015 29.2647 12.7906 29.3742C13.0756 29.729 13.362 30.0828 13.636 30.4462C13.9619 30.8779 14.3514 31.2686 14.6595 31.7118C14.5401 31.728 14.4202 31.7429 14.3003 31.7543C13.0544 31.8275 11.8248 32.3453 10.8393 33.095C10.11 33.6396 9.48555 34.3577 8.95598 35.0917C8.19532 33.6616 7.58391 32.1469 7.14243 30.5901C6.86609 29.6228 6.66486 28.6422 6.61623 27.6357C6.57242 27.2652 6.57868 26.9138 6.61864 26.5432C6.65234 26.2272 6.64415 25.9164 6.70818 25.6042C6.82276 25.0299 6.96093 24.4705 7.20454 23.9355C7.56031 23.1418 8.07545 22.3845 8.74319 21.8179Z" fill="#E1626F"/>
<path d="M19.6237 36.2589C20.1451 36.6395 20.5735 37.197 20.744 37.8219C20.833 38.1485 20.9154 38.4808 20.8797 38.8217C20.8369 39.2272 20.7045 39.6078 20.5793 39.9936C20.3487 40.696 20.0257 41.3711 19.6959 42.0323C19.5399 42.3689 19.3883 42.707 19.2116 43.034C18.7711 43.8416 18.3541 44.7151 17.8462 45.482C17.2815 44.4866 16.7235 43.493 16.2175 42.466C15.8435 41.6618 15.4381 40.8724 15.1449 40.0395C14.9678 39.5069 14.7959 39.0125 14.8373 38.4411C14.9201 37.5881 15.3688 36.783 16.0693 36.2786C17.0793 35.5059 18.6035 35.5045 19.6237 36.2589Z" fill="#F0B674"/>
</svg>
