<svg width="1438" height="167" viewBox="0 0 1438 167" fill="none" xmlns="http://www.w3.org/2000/svg">
<path d="M1438 39.8265L1398 43.1246C1358 46.6717 1278 52.8945 1198 72.9944C1118 92.7209 1038 126.324 958 146.051C878 166.151 798 172.374 718 159.306C638 146.238 558 112.634 478 96.2679C398 79.6528 313.5 102.553 233.5 109.212C153.5 115.621 78 106.411 38 112.821L-2 119.479L-1.99999 -3.81849e-06L38 -3.21575e-07C78 3.17534e-06 158 1.01692e-05 238 1.7163e-05C318 2.41568e-05 398 3.11506e-05 478 3.81444e-05C558 4.51383e-05 638 5.21321e-05 718 5.91259e-05C798 6.61197e-05 878 7.31136e-05 958 8.01074e-05C1038 8.71012e-05 1118 9.4095e-05 1198 0.000101089C1278 0.000108083 1358 0.000115076 1398 0.000118573L1438 0.00012207L1438 39.8265Z" fill="#0011FC"/>
</svg>
