<svg width="1440" height="1076" viewBox="0 0 1440 1076" fill="none" xmlns="http://www.w3.org/2000/svg">
<path d="M379.985 608.781L382.316 623.584L397.126 625.914L382.316 628.244L379.985 643.046L377.655 628.244L362.845 625.914L377.655 623.584L379.985 608.781Z" fill="url(#paint0_linear)"/>
<path d="M403.653 438.679L405.984 453.483L420.794 455.812L405.984 458.142L403.653 472.945L401.322 458.142L386.513 455.812L401.322 453.483L403.653 438.679Z" fill="url(#paint1_linear)"/>
<path d="M139.718 558.151L142.049 572.953L156.859 575.283L142.049 577.613L139.718 592.416L137.387 577.613L122.578 575.283L137.387 572.953L139.718 558.151Z" fill="url(#paint2_linear)"/>
<path d="M183.505 830.595L184.511 836.99L190.91 837.996L184.511 839.003L183.505 845.398L182.498 839.003L176.1 837.996L182.498 836.99L183.505 830.595Z" fill="url(#paint3_linear)"/>
<path d="M980.992 554.043L982.274 562.186L990.421 563.467L982.274 564.749L980.992 572.892L979.71 564.749L971.563 563.467L979.71 562.186L980.992 554.043Z" fill="url(#paint4_linear)"/>
<path d="M707.207 746.993L709.844 751.813L714.666 754.449L709.844 757.085L707.207 761.905L704.569 757.085L699.747 754.449L704.569 751.813L707.207 746.993Z" fill="url(#paint5_linear)"/>
<path d="M239.649 906.369L242.286 911.189L247.109 913.825L242.286 916.461L239.649 921.281L237.012 916.461L232.189 913.825L237.012 911.189L239.649 906.369Z" fill="url(#paint6_linear)"/>
<path d="M995.445 681.379L998.083 686.199L1002.91 688.835L998.083 691.471L995.445 696.291L992.808 691.471L987.986 688.835L992.808 686.199L995.445 681.379Z" fill="url(#paint7_linear)"/>
<path d="M1185.5 831.032L1188.14 835.853L1192.96 838.489L1188.14 841.125L1185.5 845.945L1182.87 841.125L1178.04 838.489L1182.87 835.853L1185.5 831.032Z" fill="url(#paint8_linear)"/>
<path d="M759.638 645.338C759.224 645.751 758.81 646.165 758.397 646.579C756.613 648.362 759.38 651.129 761.165 649.345C761.579 648.932 761.993 648.518 762.407 648.104C764.19 646.322 761.423 643.554 759.638 645.338ZM580.77 641.587C578.251 641.587 578.247 645.5 580.77 645.5C583.289 645.5 583.293 641.587 580.77 641.587ZM67.4758 956.83C64.9568 956.83 64.9528 960.743 67.4758 960.743C69.9949 960.744 69.9988 956.83 67.4758 956.83ZM-53.4116 997.994C-55.9307 997.994 -55.9346 1001.91 -53.4116 1001.91C-50.8929 1001.91 -50.8886 997.994 -53.4116 997.994ZM451.517 671.572C448.998 671.572 448.994 675.485 451.517 675.485C454.036 675.485 454.04 671.572 451.517 671.572ZM292.415 954.017C289.896 954.017 289.892 957.93 292.415 957.93C294.934 957.93 294.938 954.017 292.415 954.017ZM494.122 871.702C491.603 871.702 491.599 875.615 494.122 875.615C496.641 875.615 496.645 871.702 494.122 871.702ZM819.957 723.773C817.438 723.773 817.434 727.686 819.957 727.686C822.476 727.686 822.48 723.773 819.957 723.773ZM902.083 659.839C899.564 659.839 899.56 663.752 902.083 663.752C904.602 663.752 904.606 659.839 902.083 659.839ZM204.635 572.318C204.378 572.574 204.122 572.83 203.866 573.086C202.082 574.869 204.849 577.637 206.634 575.853L207.403 575.085C209.186 573.302 206.419 570.535 204.635 572.318ZM362.606 408.122C360.087 408.122 360.083 412.035 362.606 412.035C365.125 412.035 365.129 408.122 362.606 408.122ZM172.243 631.292C169.724 631.292 169.72 635.205 172.243 635.205C174.762 635.205 174.766 631.292 172.243 631.292ZM250.044 696.049C247.525 696.049 247.521 699.962 250.044 699.962C252.563 699.962 252.568 696.049 250.044 696.049ZM220.206 741.518C217.687 741.518 217.683 745.431 220.206 745.431C222.725 745.431 222.729 741.518 220.206 741.518ZM245.867 891.124C243.348 891.124 243.344 895.036 245.867 895.036C248.386 895.036 248.39 891.124 245.867 891.124ZM364.027 872.895C361.508 872.895 361.504 876.808 364.027 876.808C366.546 876.808 366.55 872.895 364.027 872.895ZM410.347 350C407.828 350 407.824 353.913 410.347 353.913C412.866 353.913 412.87 350 410.347 350ZM468.055 515.297V516.538C468.055 519.056 471.969 519.06 471.969 516.538V515.297C471.97 512.779 468.055 512.775 468.055 515.297ZM432.256 600.839C429.737 600.839 429.733 604.752 432.256 604.752C434.775 604.752 434.779 600.839 432.256 600.839ZM892.066 555.016C889.547 555.016 889.543 558.929 892.066 558.929C894.585 558.929 894.59 555.016 892.066 555.016ZM1287.85 712.098C1285.33 712.098 1285.33 716.011 1287.85 716.011C1290.37 716.011 1290.37 712.098 1287.85 712.098ZM1201.89 727.067C1199.37 727.067 1199.36 730.979 1201.89 730.979C1204.41 730.979 1204.41 727.067 1201.89 727.067ZM720.44 691.177C717.921 691.177 717.917 695.09 720.44 695.09C722.959 695.09 722.963 691.177 720.44 691.177ZM608.856 562.549C606.337 562.549 606.333 566.462 608.856 566.462C611.375 566.462 611.379 562.549 608.856 562.549ZM936.923 620.033C934.404 620.033 934.4 623.946 936.923 623.946C939.443 623.946 939.447 620.033 936.923 620.033ZM1029.21 521.108C1026.69 521.108 1026.68 525.02 1029.21 525.02C1031.72 525.02 1031.73 521.108 1029.21 521.108ZM583.41 467.771C580.891 467.771 580.887 471.683 583.41 471.683C585.929 471.683 585.933 467.771 583.41 467.771ZM542.83 365.175C540.311 365.175 540.307 369.088 542.83 369.088C545.348 369.088 545.353 365.175 542.83 365.175ZM186.787 778.698C184.268 778.698 184.264 782.611 186.787 782.611C189.306 782.612 189.31 778.698 186.787 778.698ZM156.352 925.386C153.833 925.386 153.829 929.299 156.352 929.299C158.871 929.299 158.875 925.386 156.352 925.386ZM134.868 839.492C132.349 839.492 132.345 843.405 134.868 843.405C137.387 843.405 137.392 839.492 134.868 839.492ZM-8.95251 935.241C-11.4716 935.241 -11.4755 939.154 -8.95251 939.154C-6.43345 939.154 -6.42917 935.241 -8.95251 935.241ZM1139.84 845.403C1137.32 845.403 1137.32 849.316 1139.84 849.316C1142.36 849.316 1142.36 845.403 1139.84 845.403ZM112.922 500.716C110.403 500.716 110.399 504.629 112.922 504.629C115.441 504.629 115.445 500.716 112.922 500.716ZM1071.04 567.98H1069.18C1066.66 567.98 1066.65 571.893 1069.18 571.893H1071.04C1073.56 571.893 1073.56 567.98 1071.04 567.98ZM1274.69 617.313H1272.83C1270.31 617.313 1270.31 621.226 1272.83 621.226H1274.69C1277.21 621.226 1277.22 617.313 1274.69 617.313ZM1007.11 443.911H1005.25C1002.73 443.911 1002.73 447.824 1005.25 447.824H1007.11C1009.63 447.824 1009.64 443.911 1007.11 443.911ZM720.003 503.556C719.382 504.176 718.761 504.797 718.14 505.417C716.356 507.2 719.124 509.968 720.908 508.184L722.771 506.323C724.554 504.54 721.787 501.772 720.003 503.556ZM1024.05 626.857C1021.53 626.857 1021.53 630.77 1024.05 630.77C1026.57 630.77 1026.57 626.857 1024.05 626.857ZM1125.5 682.926C1122.98 682.926 1122.98 686.839 1125.5 686.839C1128.02 686.84 1128.03 682.926 1125.5 682.926ZM729.494 644.377C726.975 644.377 726.971 648.29 729.494 648.29C732.013 648.29 732.018 644.377 729.494 644.377ZM599.369 750.266C596.85 750.266 596.846 754.179 599.369 754.179C601.888 754.179 601.893 750.266 599.369 750.266ZM908.051 390.561C905.532 390.561 905.528 394.474 908.051 394.474C910.57 394.474 910.574 390.561 908.051 390.561ZM1344.88 652.682C1342.37 652.682 1342.36 656.594 1344.88 656.594C1347.4 656.595 1347.41 652.682 1344.88 652.682ZM94.2854 578.739C93.2532 578.739 93.2514 580.342 94.2854 580.342C95.3176 580.342 95.3193 578.739 94.2854 578.739ZM646.49 657.305C645.457 657.305 645.456 658.908 646.49 658.908C647.522 658.908 647.523 657.305 646.49 657.305ZM651.441 504.676C650.409 504.676 650.407 506.28 651.441 506.28C652.473 506.28 652.475 504.676 651.441 504.676ZM895.15 728.468C894.117 728.468 894.116 730.072 895.15 730.072C896.182 730.072 896.184 728.468 895.15 728.468ZM496.694 572.548C495.662 572.548 495.66 574.151 496.694 574.151C497.726 574.151 497.728 572.548 496.694 572.548ZM1001.08 561.714C1000.04 561.714 1000.04 563.317 1001.08 563.317C1002.11 563.317 1002.11 561.714 1001.08 561.714ZM1055.08 681.657C1054.05 681.657 1054.05 683.26 1055.08 683.26C1056.12 683.26 1056.12 681.657 1055.08 681.657ZM1264.58 760.59C1263.55 760.59 1263.55 762.193 1264.58 762.193C1265.61 762.193 1265.61 760.59 1264.58 760.59ZM1030.1 790.098C1029.07 790.098 1029.07 791.701 1030.1 791.701C1031.13 791.701 1031.13 790.098 1030.1 790.098ZM895.15 846.983C894.117 846.983 894.116 848.587 895.15 848.587C896.182 848.587 896.184 846.983 895.15 846.983ZM1010.95 877.014C1008.43 877.014 1008.43 880.927 1010.95 880.927C1013.47 880.927 1013.47 877.014 1010.95 877.014ZM782.73 848.329C780.211 848.329 780.207 852.242 782.73 852.242C785.249 852.242 785.253 848.329 782.73 848.329ZM975.785 738.423H973.923C971.404 738.423 971.4 742.335 973.923 742.335H975.785C978.304 742.336 978.308 738.423 975.785 738.423ZM948.334 837.106H946.472C943.953 837.106 943.949 841.019 946.472 841.019H948.334C950.853 841.019 950.857 837.106 948.334 837.106ZM996.6 928.888C995.568 928.888 995.566 930.492 996.6 930.492C997.633 930.492 997.634 928.888 996.6 928.888ZM1366.37 737.306C1365.34 737.306 1365.33 738.91 1366.37 738.91C1367.4 738.91 1367.4 737.306 1366.37 737.306ZM1370.19 879.368C1369.16 879.368 1369.16 880.971 1370.19 880.971C1371.22 880.971 1371.22 879.368 1370.19 879.368ZM1486.31 934.489C1485.28 934.489 1485.27 936.092 1486.31 936.092C1487.34 936.092 1487.34 934.489 1486.31 934.489ZM590.995 512.579C589.963 512.579 589.962 514.182 590.995 514.182C592.028 514.182 592.03 512.579 590.995 512.579ZM761.246 595.342C760.214 595.342 760.212 596.946 761.246 596.946C762.279 596.946 762.28 595.342 761.246 595.342ZM936.716 517.37C936.377 517.031 936.037 516.692 935.698 516.353C934.967 515.622 933.833 516.756 934.564 517.487C934.903 517.826 935.242 518.165 935.582 518.504C936.312 519.234 937.447 518.101 936.716 517.37ZM1129.02 785.916C1128.68 785.577 1128.35 785.238 1128.01 784.899C1127.27 784.168 1126.14 785.301 1126.87 786.033C1127.21 786.372 1127.55 786.711 1127.89 787.05C1128.62 787.78 1129.75 786.646 1129.02 785.916ZM559.741 701.296C558.708 701.296 558.707 702.9 559.741 702.9C560.773 702.9 560.774 701.296 559.741 701.296ZM509.846 661.865C508.813 661.865 508.812 663.469 509.846 663.469C510.878 663.469 510.88 661.865 509.846 661.865ZM397.218 725.787C396.186 725.787 396.184 727.391 397.218 727.391C398.251 727.391 398.252 725.787 397.218 725.787ZM50.1273 851.755C49.0952 851.755 49.0934 853.359 50.1273 853.359C51.1598 853.359 51.1613 851.755 50.1273 851.755ZM222.95 632.768C221.918 632.768 221.916 634.372 222.95 634.372C223.983 634.372 223.984 632.768 222.95 632.768ZM136.202 660.183C135.169 660.183 135.168 661.787 136.202 661.787C137.234 661.787 137.235 660.183 136.202 660.183ZM99.0625 922.141C98.0303 922.141 98.0285 923.744 99.0625 923.744C100.095 923.744 100.096 922.141 99.0625 922.141ZM136.858 1002.26C135.826 1002.26 135.824 1003.86 136.858 1003.86C137.89 1003.86 137.892 1002.26 136.858 1002.26ZM173.062 1015.19C172.029 1015.19 172.028 1016.8 173.062 1016.8C174.094 1016.8 174.096 1015.19 173.062 1015.19ZM316.574 600.394L315.557 599.377C314.826 598.647 313.691 599.78 314.423 600.511L315.44 601.528C316.171 602.259 317.306 601.125 316.574 600.394ZM528.735 1025.93C527.702 1025.93 527.701 1027.53 528.735 1027.53C529.767 1027.53 529.768 1025.93 528.735 1025.93ZM370.961 967.961C369.928 967.961 369.927 969.565 370.961 969.565C371.993 969.565 371.995 967.961 370.961 967.961ZM503.579 774.612C502.547 774.612 502.545 776.216 503.579 776.216C504.611 776.216 504.613 774.612 503.579 774.612ZM431.831 937.726C430.799 937.726 430.797 939.33 431.831 939.33C432.863 939.33 432.865 937.726 431.831 937.726ZM256.383 561.698V562.715C256.383 563.747 257.987 563.748 257.987 562.715V561.698C257.987 560.666 256.383 560.664 256.383 561.698ZM353.712 675.485C352.679 675.485 352.678 677.088 353.712 677.088C354.744 677.088 354.746 675.485 353.712 675.485ZM-53.1131 871.34C-54.1456 871.34 -54.147 872.944 -53.1131 872.944C-52.0809 872.944 -52.0795 871.34 -53.1131 871.34ZM341.831 521.079C341.492 520.74 341.153 520.401 340.813 520.061C340.082 519.331 338.948 520.464 339.679 521.195L340.697 522.212C341.427 522.943 342.562 521.809 341.831 521.079ZM370.072 612.46C369.04 612.46 369.038 614.063 370.072 614.063C371.104 614.063 371.106 612.46 370.072 612.46ZM283.547 654.117C282.515 654.117 282.513 655.721 283.547 655.721C284.579 655.721 284.581 654.117 283.547 654.117ZM320.463 743.692C319.431 743.692 319.429 745.295 320.463 745.295C321.495 745.295 321.497 743.692 320.463 743.692ZM422.51 849.369C421.478 849.369 421.476 850.973 422.51 850.973C423.543 850.973 423.544 849.369 422.51 849.369ZM287.641 839.54C286.609 839.54 286.607 841.144 287.641 841.144C288.673 841.144 288.675 839.54 287.641 839.54ZM266.942 603.562V604.579C266.942 605.611 268.546 605.613 268.546 604.579V603.562C268.546 602.53 266.942 602.528 266.942 603.562ZM-74 946.176V947.194C-74 948.225 -72.3957 948.227 -72.3957 947.194V946.176C-72.3957 945.144 -74 945.143 -74 946.176ZM34.2008 903.229V904.246C34.2008 905.278 35.8051 905.28 35.8051 904.246V903.229C35.8051 902.197 34.2008 902.195 34.2008 903.229ZM1429.26 915.15C1426.74 915.15 1426.73 919.063 1429.26 919.063C1431.78 919.063 1431.78 915.15 1429.26 915.15ZM1352.29 782.756C1349.77 782.756 1349.77 786.669 1352.29 786.669C1354.81 786.669 1354.81 782.756 1352.29 782.756ZM656.215 841.095C655.183 841.095 655.181 842.699 656.215 842.699C657.247 842.699 657.249 841.095 656.215 841.095ZM979.294 481.237C978.261 481.237 978.26 482.841 979.294 482.841C980.326 482.841 980.328 481.237 979.294 481.237ZM709.555 554.009C708.523 554.009 708.521 555.612 709.555 555.612C710.588 555.612 710.589 554.009 709.555 554.009ZM549.323 538.09C548.291 538.09 548.289 539.694 549.323 539.694C550.355 539.694 550.357 538.09 549.323 538.09ZM179.365 530.038C178.333 530.038 178.331 531.641 179.365 531.641C180.397 531.641 180.399 530.038 179.365 530.038ZM618.846 690.605C617.814 690.605 617.812 692.208 618.846 692.208C619.879 692.208 619.88 690.605 618.846 690.605ZM458.913 737.727C457.88 737.727 457.879 739.331 458.913 739.331C459.945 739.331 459.947 737.727 458.913 737.727ZM233.932 1025.52C232.899 1025.52 232.898 1027.12 233.932 1027.12C234.964 1027.12 234.966 1025.52 233.932 1025.52ZM373.575 786.142C372.543 786.142 372.541 787.745 373.575 787.745C374.607 787.745 374.609 786.142 373.575 786.142ZM1506.22 895.655C1505.19 895.655 1505.19 897.259 1506.22 897.259C1507.26 897.259 1507.26 895.655 1506.22 895.655ZM1396.66 976.148C1395.63 976.148 1395.63 977.752 1396.66 977.752C1397.69 977.752 1397.7 976.148 1396.66 976.148ZM1032.79 1022.23C1031.76 1022.23 1031.76 1023.84 1032.79 1023.84C1033.82 1023.84 1033.82 1022.23 1032.79 1022.23ZM1069.18 730.559C1068.15 730.559 1068.14 732.163 1069.18 732.163C1070.21 732.163 1070.21 730.559 1069.18 730.559ZM711.118 930.568C710.085 930.568 710.084 932.172 711.118 932.172C712.15 932.172 712.152 930.568 711.118 930.568ZM517.765 987.831C516.733 987.831 516.731 989.435 517.765 989.435C518.797 989.435 518.799 987.831 517.765 987.831ZM527.314 922.628C526.281 922.628 526.28 924.232 527.314 924.232C528.346 924.232 528.348 922.628 527.314 922.628ZM398.412 1073.73C397.379 1073.73 397.378 1075.33 398.412 1075.33C399.444 1075.33 399.446 1073.73 398.412 1073.73ZM1361.61 978.473C1360.58 978.473 1360.57 980.076 1361.61 980.076C1362.64 980.076 1362.64 978.473 1361.61 978.473ZM775.882 835.594C775.882 836.626 777.486 836.627 777.486 835.594C777.486 834.562 775.882 834.56 775.882 835.594ZM689.701 857.152L688.683 858.169C687.952 858.9 689.086 860.034 689.817 859.303L690.835 858.285C691.566 857.555 690.432 856.421 689.701 857.152ZM552.378 889.225L551.36 890.242C550.629 890.972 551.763 892.106 552.494 891.375L553.512 890.358C554.243 889.628 553.109 888.494 552.378 889.225ZM764.827 820.032C764.827 821.064 766.431 821.065 766.431 820.032C766.431 819 764.827 818.999 764.827 820.032ZM848.813 790.261C848.813 791.293 850.417 791.294 850.417 790.261C850.417 789.229 848.813 789.227 848.813 790.261ZM902.397 847.524C902.397 848.555 904.001 848.557 904.001 847.524C904.001 846.492 902.397 846.49 902.397 847.524ZM701.772 803.679C701.772 804.711 703.377 804.713 703.377 803.679C703.377 802.648 701.772 802.646 701.772 803.679ZM837.25 882.12C837.25 883.152 838.854 883.154 838.854 882.12C838.854 881.088 837.25 881.087 837.25 882.12ZM743.449 890.164C743.449 891.196 745.053 891.197 745.053 890.164C745.053 889.132 743.449 889.13 743.449 890.164ZM838.854 882.12C838.854 883.152 840.458 883.154 840.458 882.12C840.458 881.088 838.854 881.087 838.854 882.12ZM769.601 750.84C769.601 751.871 771.205 751.873 771.205 750.84C771.205 749.808 769.601 749.806 769.601 750.84ZM721.449 997.785C721.449 998.817 723.053 998.819 723.053 997.785C723.053 996.754 721.449 996.752 721.449 997.785ZM382.963 533.358V534.375C382.963 535.407 384.567 535.409 384.567 534.375V533.358C384.567 532.326 382.963 532.325 382.963 533.358Z" fill="url(#paint9_linear)"/>
<path d="M779.638 437.338C779.224 437.751 778.81 438.165 778.397 438.579C776.613 440.362 779.38 443.129 781.165 441.345C781.579 440.932 781.993 440.518 782.407 440.104C784.19 438.322 781.423 435.554 779.638 437.338ZM600.77 433.587C598.251 433.587 598.247 437.5 600.77 437.5C603.289 437.5 603.293 433.587 600.77 433.587ZM87.4758 748.83C84.9568 748.83 84.9528 752.743 87.4758 752.743C89.9949 752.744 89.9988 748.83 87.4758 748.83ZM-33.4116 789.994C-35.9307 789.994 -35.9346 793.907 -33.4116 793.907C-30.8929 793.907 -30.8886 789.994 -33.4116 789.994ZM471.517 463.572C468.998 463.572 468.994 467.485 471.517 467.485C474.036 467.485 474.04 463.572 471.517 463.572ZM312.415 746.017C309.896 746.017 309.892 749.93 312.415 749.93C314.934 749.93 314.938 746.017 312.415 746.017ZM514.122 663.702C511.603 663.702 511.599 667.615 514.122 667.615C516.641 667.615 516.645 663.702 514.122 663.702ZM839.957 515.773C837.438 515.773 837.434 519.686 839.957 519.686C842.476 519.686 842.48 515.773 839.957 515.773ZM922.083 451.839C919.564 451.839 919.56 455.752 922.083 455.752C924.602 455.752 924.606 451.839 922.083 451.839ZM224.635 364.318C224.378 364.574 224.122 364.83 223.866 365.086C222.082 366.869 224.849 369.637 226.634 367.853L227.403 367.085C229.186 365.302 226.419 362.535 224.635 364.318ZM382.606 200.122C380.087 200.122 380.083 204.035 382.606 204.035C385.125 204.035 385.129 200.122 382.606 200.122ZM192.243 423.292C189.724 423.292 189.72 427.205 192.243 427.205C194.762 427.205 194.766 423.292 192.243 423.292ZM270.044 488.049C267.525 488.049 267.521 491.962 270.044 491.962C272.563 491.962 272.568 488.049 270.044 488.049ZM240.206 533.518C237.687 533.518 237.683 537.431 240.206 537.431C242.725 537.431 242.729 533.518 240.206 533.518ZM265.867 683.124C263.348 683.124 263.344 687.036 265.867 687.036C268.386 687.036 268.39 683.124 265.867 683.124ZM384.027 664.895C381.508 664.895 381.504 668.808 384.027 668.808C386.546 668.808 386.55 664.895 384.027 664.895ZM430.347 142C427.828 142 427.824 145.913 430.347 145.913C432.866 145.913 432.87 142 430.347 142ZM488.055 307.297V308.538C488.055 311.056 491.969 311.06 491.969 308.538V307.297C491.97 304.779 488.055 304.775 488.055 307.297ZM452.256 392.839C449.737 392.839 449.733 396.752 452.256 396.752C454.775 396.752 454.779 392.839 452.256 392.839ZM912.066 347.016C909.547 347.016 909.543 350.929 912.066 350.929C914.585 350.929 914.59 347.016 912.066 347.016ZM1307.85 504.098C1305.33 504.098 1305.33 508.011 1307.85 508.011C1310.37 508.011 1310.37 504.098 1307.85 504.098ZM1221.89 519.067C1219.37 519.067 1219.36 522.979 1221.89 522.979C1224.41 522.979 1224.41 519.067 1221.89 519.067ZM740.44 483.177C737.921 483.177 737.917 487.09 740.44 487.09C742.959 487.09 742.963 483.177 740.44 483.177ZM628.856 354.549C626.337 354.549 626.333 358.462 628.856 358.462C631.375 358.462 631.379 354.549 628.856 354.549ZM956.923 412.033C954.404 412.033 954.4 415.946 956.923 415.946C959.443 415.946 959.447 412.033 956.923 412.033ZM1049.21 313.108C1046.69 313.108 1046.68 317.02 1049.21 317.02C1051.72 317.02 1051.73 313.108 1049.21 313.108ZM603.41 259.771C600.891 259.771 600.887 263.683 603.41 263.683C605.929 263.683 605.933 259.771 603.41 259.771ZM562.83 157.175C560.311 157.175 560.307 161.088 562.83 161.088C565.348 161.088 565.353 157.175 562.83 157.175ZM206.787 570.698C204.268 570.698 204.264 574.611 206.787 574.611C209.306 574.612 209.31 570.698 206.787 570.698ZM176.352 717.386C173.833 717.386 173.829 721.299 176.352 721.299C178.871 721.299 178.875 717.386 176.352 717.386ZM154.868 631.492C152.349 631.492 152.345 635.405 154.868 635.405C157.387 635.405 157.392 631.492 154.868 631.492ZM11.0475 727.241C8.52842 727.241 8.52449 731.154 11.0475 731.154C13.5666 731.154 13.5708 727.241 11.0475 727.241ZM1159.84 637.403C1157.32 637.403 1157.32 641.316 1159.84 641.316C1162.36 641.316 1162.36 637.403 1159.84 637.403ZM132.922 292.716C130.403 292.716 130.399 296.629 132.922 296.629C135.441 296.629 135.445 292.716 132.922 292.716ZM1091.04 359.98H1089.18C1086.66 359.98 1086.65 363.893 1089.18 363.893H1091.04C1093.56 363.893 1093.56 359.98 1091.04 359.98ZM1294.69 409.313H1292.83C1290.31 409.313 1290.31 413.226 1292.83 413.226H1294.69C1297.21 413.226 1297.22 409.313 1294.69 409.313ZM1027.11 235.911H1025.25C1022.73 235.911 1022.73 239.824 1025.25 239.824H1027.11C1029.63 239.824 1029.64 235.911 1027.11 235.911ZM740.003 295.556C739.382 296.176 738.761 296.797 738.14 297.417C736.356 299.2 739.124 301.968 740.908 300.184L742.771 298.323C744.554 296.54 741.787 293.772 740.003 295.556ZM1044.05 418.857C1041.53 418.857 1041.53 422.77 1044.05 422.77C1046.57 422.77 1046.57 418.857 1044.05 418.857ZM1145.5 474.926C1142.98 474.926 1142.98 478.839 1145.5 478.839C1148.02 478.84 1148.03 474.926 1145.5 474.926ZM749.494 436.377C746.975 436.377 746.971 440.29 749.494 440.29C752.013 440.29 752.018 436.377 749.494 436.377ZM619.369 542.266C616.85 542.266 616.846 546.179 619.369 546.179C621.888 546.179 621.893 542.266 619.369 542.266ZM928.051 182.561C925.532 182.561 925.528 186.474 928.051 186.474C930.57 186.474 930.574 182.561 928.051 182.561ZM1364.88 444.682C1362.37 444.682 1362.36 448.594 1364.88 448.594C1367.4 448.595 1367.41 444.682 1364.88 444.682ZM114.285 370.739C113.253 370.739 113.251 372.342 114.285 372.342C115.318 372.342 115.319 370.739 114.285 370.739ZM666.49 449.305C665.457 449.305 665.456 450.908 666.49 450.908C667.522 450.908 667.523 449.305 666.49 449.305ZM671.441 296.676C670.409 296.676 670.407 298.28 671.441 298.28C672.473 298.28 672.475 296.676 671.441 296.676ZM915.15 520.468C914.117 520.468 914.116 522.072 915.15 522.072C916.182 522.072 916.184 520.468 915.15 520.468ZM516.694 364.548C515.662 364.548 515.66 366.151 516.694 366.151C517.726 366.151 517.728 364.548 516.694 364.548ZM1021.08 353.714C1020.04 353.714 1020.04 355.317 1021.08 355.317C1022.11 355.317 1022.11 353.714 1021.08 353.714ZM1075.08 473.657C1074.05 473.657 1074.05 475.26 1075.08 475.26C1076.12 475.26 1076.12 473.657 1075.08 473.657ZM1284.58 552.59C1283.55 552.59 1283.55 554.193 1284.58 554.193C1285.61 554.193 1285.61 552.59 1284.58 552.59ZM1050.1 582.098C1049.07 582.098 1049.07 583.701 1050.1 583.701C1051.13 583.701 1051.13 582.098 1050.1 582.098ZM915.15 638.983C914.117 638.983 914.116 640.587 915.15 640.587C916.182 640.587 916.184 638.983 915.15 638.983ZM1030.95 669.014C1028.43 669.014 1028.43 672.927 1030.95 672.927C1033.47 672.927 1033.47 669.014 1030.95 669.014ZM802.73 640.329C800.211 640.329 800.207 644.242 802.73 644.242C805.249 644.242 805.253 640.329 802.73 640.329ZM995.785 530.423H993.923C991.404 530.423 991.4 534.335 993.923 534.335H995.785C998.304 534.336 998.308 530.423 995.785 530.423ZM968.334 629.106H966.472C963.953 629.106 963.949 633.019 966.472 633.019H968.334C970.853 633.019 970.857 629.106 968.334 629.106ZM1016.6 720.888C1015.57 720.888 1015.57 722.492 1016.6 722.492C1017.63 722.492 1017.63 720.888 1016.6 720.888ZM1386.37 529.306C1385.34 529.306 1385.33 530.91 1386.37 530.91C1387.4 530.91 1387.4 529.306 1386.37 529.306ZM1390.19 671.368C1389.16 671.368 1389.16 672.971 1390.19 672.971C1391.22 672.971 1391.22 671.368 1390.19 671.368ZM1506.31 726.489C1505.28 726.489 1505.27 728.092 1506.31 728.092C1507.34 728.092 1507.34 726.489 1506.31 726.489ZM610.995 304.579C609.963 304.579 609.962 306.182 610.995 306.182C612.028 306.182 612.03 304.579 610.995 304.579ZM781.246 387.342C780.214 387.342 780.212 388.946 781.246 388.946C782.279 388.946 782.28 387.342 781.246 387.342ZM956.716 309.37C956.377 309.031 956.037 308.692 955.698 308.353C954.967 307.622 953.833 308.756 954.564 309.487C954.903 309.826 955.242 310.165 955.582 310.504C956.312 311.234 957.447 310.101 956.716 309.37ZM1149.02 577.916C1148.68 577.577 1148.35 577.238 1148.01 576.899C1147.27 576.168 1146.14 577.301 1146.87 578.033C1147.21 578.372 1147.55 578.711 1147.89 579.05C1148.62 579.78 1149.75 578.646 1149.02 577.916ZM579.741 493.296C578.708 493.296 578.707 494.9 579.741 494.9C580.773 494.9 580.774 493.296 579.741 493.296ZM529.846 453.865C528.813 453.865 528.812 455.469 529.846 455.469C530.878 455.469 530.88 453.865 529.846 453.865ZM417.218 517.787C416.186 517.787 416.184 519.391 417.218 519.391C418.251 519.391 418.252 517.787 417.218 517.787ZM70.1273 643.755C69.0952 643.755 69.0934 645.359 70.1273 645.359C71.1598 645.359 71.1613 643.755 70.1273 643.755ZM242.95 424.768C241.918 424.768 241.916 426.372 242.95 426.372C243.983 426.372 243.984 424.768 242.95 424.768ZM156.202 452.183C155.169 452.183 155.168 453.787 156.202 453.787C157.234 453.787 157.235 452.183 156.202 452.183ZM119.062 714.141C118.03 714.141 118.029 715.744 119.062 715.744C120.095 715.744 120.096 714.141 119.062 714.141ZM156.858 794.256C155.826 794.256 155.824 795.859 156.858 795.859C157.89 795.859 157.892 794.256 156.858 794.256ZM193.062 807.193C192.029 807.193 192.028 808.797 193.062 808.797C194.094 808.797 194.096 807.193 193.062 807.193ZM336.574 392.394L335.557 391.377C334.826 390.647 333.691 391.78 334.423 392.511L335.44 393.528C336.171 394.259 337.306 393.125 336.574 392.394ZM548.735 817.93C547.702 817.93 547.701 819.533 548.735 819.533C549.767 819.533 549.768 817.93 548.735 817.93ZM390.961 759.961C389.928 759.961 389.927 761.565 390.961 761.565C391.993 761.565 391.995 759.961 390.961 759.961ZM523.579 566.612C522.547 566.612 522.545 568.216 523.579 568.216C524.611 568.216 524.613 566.612 523.579 566.612ZM451.831 729.726C450.799 729.726 450.797 731.33 451.831 731.33C452.863 731.33 452.865 729.726 451.831 729.726ZM276.383 353.698V354.715C276.383 355.747 277.987 355.748 277.987 354.715V353.698C277.987 352.666 276.383 352.664 276.383 353.698ZM373.712 467.485C372.679 467.485 372.678 469.088 373.712 469.088C374.744 469.088 374.746 467.485 373.712 467.485ZM-33.1131 663.34C-34.1456 663.34 -34.147 664.944 -33.1131 664.944C-32.0809 664.944 -32.0795 663.34 -33.1131 663.34ZM361.831 313.079C361.492 312.74 361.153 312.401 360.813 312.061C360.082 311.331 358.948 312.464 359.679 313.195L360.697 314.212C361.427 314.943 362.562 313.809 361.831 313.079ZM390.072 404.46C389.04 404.46 389.038 406.063 390.072 406.063C391.104 406.063 391.106 404.46 390.072 404.46ZM303.547 446.117C302.515 446.117 302.513 447.721 303.547 447.721C304.579 447.721 304.581 446.117 303.547 446.117ZM340.463 535.692C339.431 535.692 339.429 537.295 340.463 537.295C341.495 537.295 341.497 535.692 340.463 535.692ZM442.51 641.369C441.478 641.369 441.476 642.973 442.51 642.973C443.543 642.973 443.544 641.369 442.51 641.369ZM307.641 631.54C306.609 631.54 306.607 633.144 307.641 633.144C308.673 633.144 308.675 631.54 307.641 631.54ZM286.942 395.562V396.579C286.942 397.611 288.546 397.613 288.546 396.579V395.562C288.546 394.53 286.942 394.528 286.942 395.562ZM-54 738.176V739.194C-54 740.225 -52.3957 740.227 -52.3957 739.194V738.176C-52.3957 737.144 -54 737.143 -54 738.176ZM54.2008 695.229V696.246C54.2008 697.278 55.8051 697.28 55.8051 696.246V695.229C55.8051 694.197 54.2008 694.195 54.2008 695.229ZM1449.26 707.15C1446.74 707.15 1446.73 711.063 1449.26 711.063C1451.78 711.063 1451.78 707.15 1449.26 707.15ZM1372.29 574.756C1369.77 574.756 1369.77 578.669 1372.29 578.669C1374.81 578.669 1374.81 574.756 1372.29 574.756ZM676.215 633.095C675.183 633.095 675.181 634.699 676.215 634.699C677.247 634.699 677.249 633.095 676.215 633.095ZM999.294 273.237C998.261 273.237 998.26 274.841 999.294 274.841C1000.33 274.841 1000.33 273.237 999.294 273.237ZM729.555 346.009C728.523 346.009 728.521 347.612 729.555 347.612C730.588 347.612 730.589 346.009 729.555 346.009ZM569.323 330.09C568.291 330.09 568.289 331.694 569.323 331.694C570.355 331.694 570.357 330.09 569.323 330.09ZM199.365 322.038C198.333 322.038 198.331 323.641 199.365 323.641C200.397 323.641 200.399 322.038 199.365 322.038ZM638.846 482.605C637.814 482.605 637.812 484.208 638.846 484.208C639.879 484.208 639.88 482.605 638.846 482.605ZM478.913 529.727C477.88 529.727 477.879 531.331 478.913 531.331C479.945 531.331 479.947 529.727 478.913 529.727ZM253.932 817.519C252.899 817.519 252.898 819.123 253.932 819.123C254.964 819.123 254.966 817.519 253.932 817.519ZM393.575 578.142C392.543 578.142 392.541 579.745 393.575 579.745C394.607 579.745 394.609 578.142 393.575 578.142ZM1526.22 687.655C1525.19 687.655 1525.19 689.259 1526.22 689.259C1527.26 689.259 1527.26 687.655 1526.22 687.655ZM1416.66 768.148C1415.63 768.148 1415.63 769.752 1416.66 769.752C1417.69 769.752 1417.7 768.148 1416.66 768.148ZM1052.79 814.232C1051.76 814.232 1051.76 815.835 1052.79 815.835C1053.82 815.836 1053.82 814.232 1052.79 814.232ZM1089.18 522.559C1088.15 522.559 1088.14 524.163 1089.18 524.163C1090.21 524.163 1090.21 522.559 1089.18 522.559ZM731.118 722.568C730.085 722.568 730.084 724.172 731.118 724.172C732.15 724.172 732.152 722.568 731.118 722.568ZM537.765 779.831C536.733 779.831 536.731 781.435 537.765 781.435C538.797 781.435 538.799 779.831 537.765 779.831ZM547.314 714.628C546.281 714.628 546.28 716.232 547.314 716.232C548.346 716.232 548.348 714.628 547.314 714.628ZM418.412 865.725C417.379 865.725 417.378 867.329 418.412 867.329C419.444 867.329 419.446 865.725 418.412 865.725ZM1381.61 770.473C1380.58 770.473 1380.57 772.076 1381.61 772.076C1382.64 772.076 1382.64 770.473 1381.61 770.473ZM795.882 627.594C795.882 628.626 797.486 628.627 797.486 627.594C797.486 626.562 795.882 626.56 795.882 627.594ZM709.701 649.152L708.683 650.169C707.952 650.9 709.086 652.034 709.817 651.303L710.835 650.285C711.566 649.555 710.432 648.421 709.701 649.152ZM572.378 681.225L571.36 682.242C570.629 682.972 571.763 684.106 572.494 683.375L573.512 682.358C574.243 681.628 573.109 680.494 572.378 681.225ZM784.827 612.032C784.827 613.064 786.431 613.065 786.431 612.032C786.431 611 784.827 610.999 784.827 612.032ZM868.813 582.261C868.813 583.293 870.417 583.294 870.417 582.261C870.417 581.229 868.813 581.227 868.813 582.261ZM922.397 639.524C922.397 640.555 924.001 640.557 924.001 639.524C924.001 638.492 922.397 638.49 922.397 639.524ZM721.772 595.679C721.772 596.711 723.377 596.713 723.377 595.679C723.377 594.648 721.772 594.646 721.772 595.679ZM857.25 674.12C857.25 675.152 858.854 675.154 858.854 674.12C858.854 673.088 857.25 673.087 857.25 674.12ZM763.449 682.164C763.449 683.196 765.053 683.197 765.053 682.164C765.053 681.132 763.449 681.13 763.449 682.164ZM858.854 674.12C858.854 675.152 860.458 675.154 860.458 674.12C860.458 673.088 858.854 673.087 858.854 674.12ZM789.601 542.84C789.601 543.871 791.205 543.873 791.205 542.84C791.205 541.808 789.601 541.806 789.601 542.84ZM741.449 789.785C741.449 790.817 743.053 790.819 743.053 789.785C743.053 788.754 741.449 788.752 741.449 789.785ZM402.963 325.358V326.375C402.963 327.407 404.567 327.409 404.567 326.375V325.358C404.567 324.326 402.963 324.325 402.963 325.358Z" fill="url(#paint10_linear)"/>
<path d="M420.711 631.569C422.263 631.569 423.521 630.311 423.521 628.76C423.521 627.209 422.263 625.951 420.711 625.951C419.159 625.951 417.9 627.209 417.9 628.76C417.9 630.311 419.159 631.569 420.711 631.569Z" fill="url(#paint11_linear)"/>
<path d="M447.877 706.009C449.43 706.009 450.688 704.752 450.688 703.2C450.688 701.649 449.43 700.391 447.877 700.391C446.325 700.391 445.067 701.649 445.067 703.2C445.067 704.752 446.325 706.009 447.877 706.009Z" fill="url(#paint12_linear)"/>
<path d="M1319.8 847.316C1321.36 847.316 1322.61 846.058 1322.61 844.507C1322.61 842.956 1321.36 841.698 1319.8 841.698C1318.25 841.698 1316.99 842.956 1316.99 844.507C1316.99 846.058 1318.25 847.316 1319.8 847.316Z" fill="url(#paint13_linear)"/>
<path d="M1096.42 910.508C1097.97 910.508 1099.23 909.25 1099.23 907.699C1099.23 906.147 1097.97 904.89 1096.42 904.89C1094.87 904.89 1093.61 906.147 1093.61 907.699C1093.61 909.25 1094.87 910.508 1096.42 910.508Z" fill="url(#paint14_linear)"/>
<path d="M1039.52 847.316C1041.07 847.316 1042.33 846.058 1042.33 844.507C1042.33 842.956 1041.07 841.698 1039.52 841.698C1037.97 841.698 1036.71 842.956 1036.71 844.507C1036.71 846.058 1037.97 847.316 1039.52 847.316Z" fill="url(#paint15_linear)"/>
<path d="M305.951 794.497C307.503 794.497 308.761 793.239 308.761 791.688C308.761 790.136 307.503 788.879 305.951 788.879C304.398 788.879 303.14 790.136 303.14 791.688C303.14 793.239 304.398 794.497 305.951 794.497Z" fill="url(#paint16_linear)"/>
<path d="M89.5497 760.787C91.1019 760.787 92.3601 759.53 92.3601 757.978C92.3601 756.427 91.1019 755.169 89.5497 755.169C87.9976 755.169 86.7393 756.427 86.7393 757.978C86.7393 759.53 87.9976 760.787 89.5497 760.787Z" fill="url(#paint17_linear)"/>
<path d="M120.173 617.618C121.725 617.618 122.983 616.361 122.983 614.809C122.983 613.258 121.725 612 120.173 612C118.621 612 117.362 613.258 117.362 614.809C117.362 616.361 118.621 617.618 120.173 617.618Z" fill="url(#paint18_linear)"/>
<path d="M28.4248 812.053C29.977 812.053 31.2353 810.795 31.2353 809.244C31.2353 807.692 29.977 806.435 28.4248 806.435C26.8726 806.435 25.6143 807.692 25.6143 809.244C25.6143 810.795 26.8726 812.053 28.4248 812.053Z" fill="url(#paint19_linear)"/>
<path d="M541.324 639.996C542.876 639.996 544.135 638.738 544.135 637.187C544.135 635.635 542.876 634.378 541.324 634.378C539.772 634.378 538.514 635.635 538.514 637.187C538.514 638.738 539.772 639.996 541.324 639.996Z" fill="url(#paint20_linear)"/>
<path d="M601.045 684.942C602.597 684.942 603.856 683.684 603.856 682.133C603.856 680.581 602.597 679.324 601.045 679.324C599.493 679.324 598.235 680.581 598.235 682.133C598.235 683.684 599.493 684.942 601.045 684.942Z" fill="url(#paint21_linear)"/>
<path d="M1146.5 689.334C1148.06 689.334 1149.31 688.077 1149.31 686.525C1149.31 684.974 1148.06 683.716 1146.5 683.716C1144.95 683.716 1143.69 684.974 1143.69 686.525C1143.69 688.077 1144.95 689.334 1146.5 689.334Z" fill="url(#paint22_linear)"/>
<path d="M1173.67 763.775C1175.22 763.775 1176.48 762.517 1176.48 760.966C1176.48 759.414 1175.22 758.157 1173.67 758.157C1172.12 758.157 1170.86 759.414 1170.86 760.966C1170.86 762.517 1172.12 763.775 1173.67 763.775Z" fill="url(#paint23_linear)"/>
<path d="M1276.95 792.549C1278.51 792.549 1279.76 791.292 1279.76 789.74C1279.76 788.189 1278.51 786.931 1276.95 786.931C1275.4 786.931 1274.14 788.189 1274.14 789.74C1274.14 791.292 1275.4 792.549 1276.95 792.549Z" fill="url(#paint24_linear)"/>
<path d="M1250.26 946.316C1251.81 946.316 1253.07 945.059 1253.07 943.507C1253.07 941.956 1251.81 940.698 1250.26 940.698C1248.71 940.698 1247.45 941.956 1247.45 943.507C1247.45 945.059 1248.71 946.316 1250.26 946.316Z" fill="url(#paint25_linear)"/>
<path d="M537.109 839.442C538.661 839.442 539.919 838.184 539.919 836.632C539.919 835.081 538.661 833.823 537.109 833.823C535.557 833.823 534.298 835.081 534.298 836.632C534.298 838.184 535.557 839.442 537.109 839.442Z" fill="url(#paint26_linear)"/>
<path opacity="0.65" d="M618.344 798.421C618.344 798.421 662.893 743.413 664.34 744.135C665.786 744.858 657.35 755.217 659.037 757.144C660.724 759.072 666.027 749.435 668.919 747.026C671.812 744.617 670.365 748.472 672.534 746.062C674.704 743.653 682.898 733.535 684.345 734.017C685.791 734.498 638.068 805.608 635.175 808.74L618.344 798.421Z" fill="url(#paint27_linear)"/>
<path d="M627.123 813.19C632.713 813.19 637.245 808.66 637.245 803.072C637.245 797.484 632.713 792.954 627.123 792.954C621.532 792.954 617 797.484 617 803.072C617 808.66 621.532 813.19 627.123 813.19Z" fill="#FFBD50"/>
<rect x="-10" width="1440" height="674" fill="url(#paint28_linear)"/>
<path fill-rule="evenodd" clip-rule="evenodd" d="M1239.17 667.083C1241.26 679.668 1234.66 691.634 1223.77 696.732C1228.97 690.717 1231.54 682.473 1230.12 673.946C1227.59 658.783 1213.38 648.464 1198.38 650.899C1195.83 651.313 1193.42 652.07 1191.19 653.114C1195.23 648.434 1200.86 645.102 1207.43 644.037C1222.43 641.602 1236.64 651.92 1239.17 667.083Z" fill="#FFF4C7"/>
<defs>
<linearGradient id="paint0_linear" x1="379.985" y1="608.781" x2="379.985" y2="643.046" gradientUnits="userSpaceOnUse">
<stop offset="0.854167" stop-color="#FFF4C7"/>
<stop offset="1" stop-color="#FFF4C7" stop-opacity="0"/>
</linearGradient>
<linearGradient id="paint1_linear" x1="403.653" y1="438.679" x2="403.653" y2="472.945" gradientUnits="userSpaceOnUse">
<stop offset="0.854167" stop-color="#FFF4C7"/>
<stop offset="1" stop-color="#FFF4C7" stop-opacity="0"/>
</linearGradient>
<linearGradient id="paint2_linear" x1="139.718" y1="558.151" x2="139.718" y2="592.416" gradientUnits="userSpaceOnUse">
<stop offset="0.854167" stop-color="#FFF4C7"/>
<stop offset="1" stop-color="#FFF4C7" stop-opacity="0"/>
</linearGradient>
<linearGradient id="paint3_linear" x1="183.505" y1="830.595" x2="183.505" y2="845.398" gradientUnits="userSpaceOnUse">
<stop offset="0.854167" stop-color="#FFF4C7"/>
<stop offset="1" stop-color="#FFF4C7" stop-opacity="0"/>
</linearGradient>
<linearGradient id="paint4_linear" x1="980.992" y1="554.043" x2="980.992" y2="572.892" gradientUnits="userSpaceOnUse">
<stop offset="0.854167" stop-color="#FFF4C7"/>
<stop offset="1" stop-color="#FFF4C7" stop-opacity="0"/>
</linearGradient>
<linearGradient id="paint5_linear" x1="707.207" y1="746.993" x2="707.207" y2="761.905" gradientUnits="userSpaceOnUse">
<stop offset="0.854167" stop-color="#FFF4C7"/>
<stop offset="1" stop-color="#FFF4C7" stop-opacity="0"/>
</linearGradient>
<linearGradient id="paint6_linear" x1="239.649" y1="906.369" x2="239.649" y2="921.281" gradientUnits="userSpaceOnUse">
<stop offset="0.854167" stop-color="#FFF4C7"/>
<stop offset="1" stop-color="#FFF4C7" stop-opacity="0"/>
</linearGradient>
<linearGradient id="paint7_linear" x1="995.445" y1="681.379" x2="995.445" y2="696.291" gradientUnits="userSpaceOnUse">
<stop offset="0.854167" stop-color="#FFF4C7"/>
<stop offset="1" stop-color="#FFF4C7" stop-opacity="0"/>
</linearGradient>
<linearGradient id="paint8_linear" x1="1185.5" y1="831.032" x2="1185.5" y2="845.945" gradientUnits="userSpaceOnUse">
<stop offset="0.854167" stop-color="#FFF4C7"/>
<stop offset="1" stop-color="#FFF4C7" stop-opacity="0"/>
</linearGradient>
<linearGradient id="paint9_linear" x1="716.5" y1="350" x2="716.5" y2="1075.33" gradientUnits="userSpaceOnUse">
<stop offset="0.854167" stop-color="#FFF4C7"/>
<stop offset="1" stop-color="#FFF4C7" stop-opacity="0"/>
</linearGradient>
<linearGradient id="paint10_linear" x1="736.5" y1="142" x2="736.5" y2="867.329" gradientUnits="userSpaceOnUse">
<stop offset="0.854167" stop-color="#FFF4C7"/>
<stop offset="1" stop-color="#FFF4C7" stop-opacity="0"/>
</linearGradient>
<linearGradient id="paint11_linear" x1="420.711" y1="625.951" x2="420.711" y2="631.569" gradientUnits="userSpaceOnUse">
<stop offset="0.854167" stop-color="#FFF4C7"/>
<stop offset="1" stop-color="#FFF4C7" stop-opacity="0"/>
</linearGradient>
<linearGradient id="paint12_linear" x1="447.877" y1="700.391" x2="447.877" y2="706.009" gradientUnits="userSpaceOnUse">
<stop offset="0.854167" stop-color="#FFF4C7"/>
<stop offset="1" stop-color="#FFF4C7" stop-opacity="0"/>
</linearGradient>
<linearGradient id="paint13_linear" x1="1319.8" y1="841.698" x2="1319.8" y2="847.316" gradientUnits="userSpaceOnUse">
<stop offset="0.854167" stop-color="#FFF4C7"/>
<stop offset="1" stop-color="#FFF4C7" stop-opacity="0"/>
</linearGradient>
<linearGradient id="paint14_linear" x1="1096.42" y1="904.89" x2="1096.42" y2="910.508" gradientUnits="userSpaceOnUse">
<stop offset="0.854167" stop-color="#FFF4C7"/>
<stop offset="1" stop-color="#FFF4C7" stop-opacity="0"/>
</linearGradient>
<linearGradient id="paint15_linear" x1="1039.52" y1="841.698" x2="1039.52" y2="847.316" gradientUnits="userSpaceOnUse">
<stop offset="0.854167" stop-color="#FFF4C7"/>
<stop offset="1" stop-color="#FFF4C7" stop-opacity="0"/>
</linearGradient>
<linearGradient id="paint16_linear" x1="305.951" y1="788.879" x2="305.951" y2="794.497" gradientUnits="userSpaceOnUse">
<stop offset="0.854167" stop-color="#FFF4C7"/>
<stop offset="1" stop-color="#FFF4C7" stop-opacity="0"/>
</linearGradient>
<linearGradient id="paint17_linear" x1="89.5497" y1="755.169" x2="89.5497" y2="760.787" gradientUnits="userSpaceOnUse">
<stop offset="0.854167" stop-color="#FFF4C7"/>
<stop offset="1" stop-color="#FFF4C7" stop-opacity="0"/>
</linearGradient>
<linearGradient id="paint18_linear" x1="120.173" y1="612" x2="120.173" y2="617.618" gradientUnits="userSpaceOnUse">
<stop offset="0.854167" stop-color="#FFF4C7"/>
<stop offset="1" stop-color="#FFF4C7" stop-opacity="0"/>
</linearGradient>
<linearGradient id="paint19_linear" x1="28.4248" y1="806.435" x2="28.4248" y2="812.053" gradientUnits="userSpaceOnUse">
<stop offset="0.854167" stop-color="#FFF4C7"/>
<stop offset="1" stop-color="#FFF4C7" stop-opacity="0"/>
</linearGradient>
<linearGradient id="paint20_linear" x1="541.324" y1="634.378" x2="541.324" y2="639.996" gradientUnits="userSpaceOnUse">
<stop offset="0.854167" stop-color="#FFF4C7"/>
<stop offset="1" stop-color="#FFF4C7" stop-opacity="0"/>
</linearGradient>
<linearGradient id="paint21_linear" x1="601.045" y1="679.324" x2="601.045" y2="684.942" gradientUnits="userSpaceOnUse">
<stop offset="0.854167" stop-color="#FFF4C7"/>
<stop offset="1" stop-color="#FFF4C7" stop-opacity="0"/>
</linearGradient>
<linearGradient id="paint22_linear" x1="1146.5" y1="683.716" x2="1146.5" y2="689.334" gradientUnits="userSpaceOnUse">
<stop offset="0.854167" stop-color="#FFF4C7"/>
<stop offset="1" stop-color="#FFF4C7" stop-opacity="0"/>
</linearGradient>
<linearGradient id="paint23_linear" x1="1173.67" y1="758.157" x2="1173.67" y2="763.775" gradientUnits="userSpaceOnUse">
<stop offset="0.854167" stop-color="#FFF4C7"/>
<stop offset="1" stop-color="#FFF4C7" stop-opacity="0"/>
</linearGradient>
<linearGradient id="paint24_linear" x1="1276.95" y1="786.931" x2="1276.95" y2="792.549" gradientUnits="userSpaceOnUse">
<stop offset="0.854167" stop-color="#FFF4C7"/>
<stop offset="1" stop-color="#FFF4C7" stop-opacity="0"/>
</linearGradient>
<linearGradient id="paint25_linear" x1="1250.26" y1="940.698" x2="1250.26" y2="946.316" gradientUnits="userSpaceOnUse">
<stop offset="0.854167" stop-color="#FFF4C7"/>
<stop offset="1" stop-color="#FFF4C7" stop-opacity="0"/>
</linearGradient>
<linearGradient id="paint26_linear" x1="537.109" y1="833.823" x2="537.109" y2="839.442" gradientUnits="userSpaceOnUse">
<stop offset="0.854167" stop-color="#FFF4C7"/>
<stop offset="1" stop-color="#FFF4C7" stop-opacity="0"/>
</linearGradient>
<linearGradient id="paint27_linear" x1="628.928" y1="800.801" x2="682.035" y2="732.353" gradientUnits="userSpaceOnUse">
<stop stop-color="#FFCF60"/>
<stop offset="1" stop-color="#582C9D"/>
</linearGradient>
<linearGradient id="paint28_linear" x1="710" y1="0" x2="710" y2="674" gradientUnits="userSpaceOnUse">
<stop offset="0.380208" stop-color="#0B1F30"/>
<stop offset="1" stop-color="#0B1F30" stop-opacity="0"/>
</linearGradient>
</defs>
</svg>
