<svg height="100%" preserveAspectRatio="xMidYMid meet" viewBox="0 0 24 24" fill="none"
    xmlns="http://www.w3.org/2000/svg">
    <g id="Iconly/Curved/Edit Square">
        <g id="Edit Square">
            <path id="Stroke 1"
                d="M12.0002 2.75C5.06324 2.75 2.75024 5.063 2.75024 12C2.75024 18.937 5.06324 21.25 12.0002 21.25C18.9372 21.25 21.2502 18.937 21.2502 12"
                stroke-width="1.5" stroke-linecap="round" stroke-linejoin="round" />
            <path id="Stroke 3" fill-rule="evenodd" clip-rule="evenodd"
                d="M19.5285 4.30364V4.30364C18.5355 3.42464 17.0185 3.51664 16.1395 4.50964C16.1395 4.50964 11.7705 9.44464 10.2555 11.1576C8.73853 12.8696 9.85053 15.2346 9.85053 15.2346C9.85053 15.2346 12.3545 16.0276 13.8485 14.3396C15.3435 12.6516 19.7345 7.69264 19.7345 7.69264C20.6135 6.69964 20.5205 5.18264 19.5285 4.30364Z"
                stroke-width="1.5" stroke-linecap="round" stroke-linejoin="round" />
            <path id="Stroke 5" d="M15.009 5.80078L18.604 8.98378" stroke-width="1.5" stroke-linecap="round"
                stroke-linejoin="round" />
        </g>
    </g>
</svg>