<svg xmlns="http://www.w3.org/2000/svg" xmlns:xlink="http://www.w3.or1999/xlink" version="1.1" height="100%"
    preserveAspectRatio="xMidYMid meet" viewBox="0 0 100 100" style="enable-background:new 0 0 100 100;"
    xml:space="preserve">
    <g>
        <path
            d="M81.375,95h-62.75C11.112,95,5,88.888,5,81.375v-62.75C5,11.112,11.112,5,18.625,5h62.75C88.888,5,95,11.112,95,18.625   v62.75C95,88.888,88.888,95,81.375,95z M18.625,11C14.421,11,11,14.42,11,18.625v62.75C11,85.58,14.421,89,18.625,89h62.75   C85.579,89,89,85.58,89,81.375v-62.75C89,14.42,85.579,11,81.375,11H18.625z" />
        <path
            d="M30.383,80.031c-2.781,0-5.396-1.083-7.363-3.05c-4.06-4.061-4.06-10.667,0-14.727c1.967-1.967,4.582-3.05,7.363-3.05   c0.001,0,0,0,0,0c2.782,0,5.397,1.083,7.363,3.05c1.967,1.966,3.051,4.582,3.051,7.363c0,2.781-1.084,5.396-3.051,7.363   C35.78,78.947,33.165,80.031,30.383,80.031z M30.383,64.204c-1.445,0-2.806,0.563-3.828,1.585c-2.11,2.111-2.11,5.545,0,7.656   c1.022,1.022,2.383,1.585,3.828,1.585c1.446,0,2.806-0.563,3.828-1.585c1.022-1.023,1.586-2.382,1.586-3.828   s-0.563-2.805-1.586-3.828C33.188,64.767,31.829,64.204,30.383,64.204z" />
        <path
            d="M69.617,40.797c-2.782,0-5.397-1.083-7.363-3.051c-1.967-1.966-3.051-4.582-3.051-7.363c0-2.781,1.084-5.396,3.051-7.363   c1.966-1.967,4.581-3.05,7.363-3.05c2.781,0,5.396,1.083,7.363,3.05c4.06,4.061,4.06,10.667,0,14.727   C75.014,39.713,72.398,40.797,69.617,40.797z M69.617,24.969c-1.446,0-2.806,0.563-3.828,1.585   c-1.022,1.023-1.586,2.382-1.586,3.828s0.563,2.805,1.586,3.828c1.022,1.023,2.382,1.586,3.828,1.586   c1.445,0,2.806-0.563,3.828-1.586c2.11-2.111,2.11-5.545,0-7.656C72.423,25.533,71.063,24.969,69.617,24.969z" />
        <path
            d="M69.617,80.031c-2.782,0-5.397-1.083-7.363-3.05c-1.967-1.967-3.051-4.582-3.051-7.363c0-2.782,1.084-5.397,3.051-7.364   c1.966-1.967,4.581-3.05,7.363-3.05c2.781,0,5.396,1.083,7.363,3.05c4.06,4.06,4.06,10.666,0,14.727   C75.014,78.948,72.398,80.031,69.617,80.031z M69.617,64.204c-1.446,0-2.806,0.563-3.828,1.585   c-1.022,1.023-1.586,2.382-1.586,3.828s0.563,2.805,1.586,3.828c1.022,1.022,2.382,1.585,3.828,1.585   c1.445,0,2.806-0.563,3.828-1.586c2.11-2.11,2.11-5.545,0-7.656C72.423,64.767,71.063,64.204,69.617,64.204z" />
        <path
            d="M30.383,40.797c-2.781,0-5.396-1.083-7.363-3.051c-4.06-4.06-4.06-10.666,0-14.727c1.967-1.967,4.582-3.05,7.363-3.05   c2.782,0,5.397,1.083,7.363,3.05c1.967,1.967,3.051,4.582,3.051,7.363c0,2.782-1.084,5.397-3.051,7.364   C35.78,39.713,33.165,40.797,30.383,40.797z M30.383,24.969c-1.445,0-2.806,0.563-3.828,1.586c-2.11,2.11-2.11,5.545,0,7.656   c1.022,1.022,2.383,1.586,3.828,1.586c1.446,0,2.806-0.563,3.828-1.586c1.022-1.023,1.586-2.382,1.586-3.828   s-0.563-2.805-1.586-3.828C33.188,25.532,31.829,24.969,30.383,24.969z" />
        <path
            d="M50,60.414c-2.781,0-5.396-1.083-7.363-3.05S39.586,52.782,39.586,50s1.084-5.397,3.051-7.364s4.582-3.05,7.363-3.05   s5.396,1.083,7.363,3.05s3.051,4.582,3.051,7.364s-1.084,5.397-3.051,7.364S52.781,60.414,50,60.414z M50,44.586   c-1.446,0-2.806,0.563-3.828,1.586S44.586,48.554,44.586,50s0.563,2.805,1.586,3.828s2.382,1.586,3.828,1.586   s2.806-0.563,3.828-1.586s1.586-2.382,1.586-3.828s-0.563-2.805-1.586-3.828S51.446,44.586,50,44.586z" />
    </g>
</svg>