<svg xmlns:dc="http://purl.org/dc/elements/1.1/" xmlns:cc="http://creativecommons.org/ns#"
    xmlns:rdf="http://www.w3.org/1999/02/22-rdf-syntax-ns#" xmlns:svg="http://www.w3.org/2000/svg"
    xmlns="http://www.w3.org/2000/svg" version="1.1" viewBox="0 0 100 125" height="100%"
    preserveAspectRatio="xMidYMid meet">
    <g transform="translate(0,-952.36216)">
        <path
            style="color:black;font-style:normal;font-variant:normal;font-weight:normal;font-stretch:normal;font-size:medium;line-height:normal;font-family:sans-serif;text-indent:0;text-align:start;text-decoration:none;text-decoration-line:none;text-decoration-style:solid;text-decoration-color:black;letter-spacing:normal;word-spacing:normal;text-transform:none;direction:ltr;block-progression:tb;writing-mode:lr-tb;baseline-shift:baseline;text-anchor:start;white-space:normal;clip-rule:nonzero;display:inline;overflow:visible;visibility:visible;opacity:1;isolation:auto;mix-blend-mode:normal;color-interpolation:sRGB;color-interpolation-filters:linearRGB;solid-color:black;solid-opacity:1;fill:black;fill-opacity:1;fill-rule:evenodd;stroke:none;stroke-width:5;stroke-linecap:round;stroke-linejoin:round;stroke-miterlimit:4;stroke-dasharray:none;stroke-dashoffset:0;stroke-opacity:1;marker:none;color-rendering:auto;image-rendering:auto;shape-rendering:auto;text-rendering:auto;enable-background:accumulate"
            d="m 21.91247,1030.1482 a 2.50025,2.50025 0 0 0 -1.7304,0.7325 l -5,5 a 2.50025,2.50025 0 0 0 -0.7325,1.7675 c 0,4.1117 3.3883,7.5 7.5,7.5 4.1118,0 7.5,-3.3883 7.5,-7.5 a 2.50025,2.50025 0 0 0 -0.7324,-1.7675 l -5,-5 a 2.50025,2.50025 0 0 0 -1.8047,-0.7325 z m 28.4981,-38.96684 3.5351,3.53725 -24.8437,24.84369 -3.1817,-0.3535 -0.3535,-3.1836 24.8438,-24.84384 z m 24.0683,-31.6035 c -2.3392,0.049 -4.7848,1.0075 -6.7441,2.9668 l -18.209,18.209 -3.7129,-0.5312 a 2.50025,2.50025 0 0 0 -2.1211,4.2421 l 3.1836,3.1817 -25.6933,25.69334 a 2.50025,2.50025 0 0 0 -0.7188,2.045 l 0.707,6.3633 a 2.50025,2.50025 0 0 0 2.209,2.2089 l 6.3653,0.7071 a 2.50025,2.50025 0 0 0 2.0429,-0.7168 l 25.6934,-25.69339 3.1816,3.18159 a 2.50025,2.50025 0 0 0 4.2422,-2.12099 l -0.5293,-3.7129 18.207,-18.20715 c 2.239203,-2.2392 3.170303,-5.1154 2.931703,-7.7402 -0.2386,-2.6248 -1.502703,-4.9734 -3.285203,-6.7559 -1.7825,-1.7825 -4.131,-3.0465 -6.7558,-3.2851 -0.3281,-0.03 -0.66,-0.042 -0.9942,-0.035 z" />
    </g>
</svg>