<svg width="24" height="24" viewBox="0 0 24 24" fill="none" xmlns="http://www.w3.org/2000/svg">
    <g id="Iconly/Curved/3 User">
        <g id="3 User">
            <path id="Stroke 1" fill-rule="evenodd" clip-rule="evenodd"
                d="M11.9724 20.3683C8.73343 20.3683 5.96643 19.8783 5.96643 17.9163C5.96643 15.9543 8.71543 14.2463 11.9724 14.2463C15.2114 14.2463 17.9784 15.9383 17.9784 17.8993C17.9784 19.8603 15.2294 20.3683 11.9724 20.3683Z"
                stroke-width="1.5" stroke-linecap="round" stroke-linejoin="round" />
            <path id="Stroke 3" fill-rule="evenodd" clip-rule="evenodd"
                d="M11.9725 11.4488C14.0985 11.4488 15.8225 9.72576 15.8225 7.59976C15.8225 5.47376 14.0985 3.74976 11.9725 3.74976C9.84645 3.74976 8.12245 5.47376 8.12245 7.59976C8.11645 9.71776 9.82645 11.4418 11.9455 11.4488H11.9725Z"
                stroke-width="1.5" stroke-linecap="round" stroke-linejoin="round" />
            <path id="Stroke 5"
                d="M18.3622 10.3915C19.5992 10.0605 20.5112 8.93254 20.5112 7.58954C20.5112 6.18854 19.5182 5.01854 18.1962 4.74854"
                stroke-width="1.5" stroke-linecap="round" stroke-linejoin="round" />
            <path id="Stroke 7"
                d="M18.9431 13.5444C20.6971 13.5444 22.1951 14.7334 22.1951 15.7954C22.1951 16.4204 21.6781 17.1014 20.8941 17.2854"
                stroke-width="1.5" stroke-linecap="round" stroke-linejoin="round" />
            <path id="Stroke 9"
                d="M5.58372 10.3915C4.34572 10.0605 3.43372 8.93254 3.43372 7.58954C3.43372 6.18854 4.42772 5.01854 5.74872 4.74854"
                stroke-width="1.5" stroke-linecap="round" stroke-linejoin="round" />
            <path id="Stroke 11"
                d="M5.00176 13.5444C3.24776 13.5444 1.74976 14.7334 1.74976 15.7954C1.74976 16.4204 2.26676 17.1014 3.05176 17.2854"
                stroke-width="1.5" stroke-linecap="round" stroke-linejoin="round" />
        </g>
    </g>
</svg>