<?xml version="1.0" standalone="no"?>
<!DOCTYPE svg PUBLIC "-//W3C//DTD SVG 20010904//EN"
 "http://www.w3.org/TR/2001/REC-SVG-20010904/DTD/svg10.dtd">
<svg version="1.0" xmlns="http://www.w3.org/2000/svg"
 width="240.000000pt" height="240.000000pt" viewBox="0 0 240.000000 240.000000"
 preserveAspectRatio="xMidYMid meet">
<metadata>
Created by potrace 1.14, written by Peter Selinger 2001-2017
</metadata>
<g transform="translate(0.000000,240.000000) scale(0.100000,-0.100000)"
fill="#000000" stroke="none">
<path d="M452 2380 c-109 -29 -187 -74 -273 -160 -56 -55 -86 -95 -113 -150
-65 -134 -66 -140 -66 -876 0 -626 1 -665 20 -738 29 -113 73 -190 160 -277
55 -56 95 -86 150 -113 134 -65 140 -66 876 -66 626 0 665 1 738 20 113 29
190 73 277 160 56 55 86 95 113 150 65 134 66 140 66 876 0 626 -1 665 -20
738 -29 113 -73 190 -160 277 -55 56 -95 86 -150 113 -134 65 -139 66 -880 65
-622 0 -670 -1 -738 -19z m738 -525 c140 -37 304 -150 381 -261 86 -125 122
-242 123 -394 1 -196 -56 -333 -199 -475 -98 -99 -164 -139 -282 -175 -92 -28
-123 -24 -71 8 63 39 175 168 213 245 104 213 98 452 -16 655 -18 31 -69 93
-113 138 -126 125 -263 187 -446 201 l-80 6 41 19 c41 18 128 42 184 52 51 8
207 -3 265 -19z"/>
</g>
</svg>
