<svg xmlns="http://www.w3.org/2000/svg" xmlns:xlink="http://www.w3.org/1999/xlink" version="1.1" x="0px" y="0px" viewBox="0 0 90 112.5" enable-background="new 0 0 90 90" xml:space="preserve"><path d="M59.6,37.2C57.9,23.7,51.5,9,45,9S32.1,23.7,30.4,37.2c-2.5,2-9.4,8.1-9.4,16.8v24c0,1.2,0.7,2.3,1.9,2.8  c0.4,0.2,0.8,0.2,1.1,0.2c0.8,0,1.5-0.3,2.1-0.9l8.9-8.9c1.8,2,4.1,3.1,7,3.5V78c0,1.7,1.3,3,3,3s3-1.3,3-3v-3.2  c3-0.4,5.3-1.5,7-3.5l8.9,8.9c0.6,0.6,1.3,0.9,2.1,0.9c0.4,0,0.8-0.1,1.1-0.2c1.1-0.5,1.9-1.6,1.9-2.8V54  C69,45.3,62.1,39.1,59.6,37.2z M27,70.8V54c0-3.1,1.4-5.9,3-8c0.1,8.8,0.7,15.2,2.1,19.6L27,70.8z M48,68.8V42c0-1.7-1.3-3-3-3  s-3,1.3-3,3v26.8c-3.6-0.8-6-5-6-25.3c0-13.2,6.2-26.4,9-28.4c2.8,1.9,9,15.2,9,28.4C54,63.8,51.6,67.9,48,68.8z M63,70.8l-5.1-5.1  c1.4-4.5,2-10.8,2.1-19.6c1.6,2.1,3,4.9,3,8V70.8z"/></svg>